<svg xmlns="http://www.w3.org/2000/svg" width="66" height="48" fill="none" class="h-[48px] w-[66px]"><path fill="#162B75" d="M66 0H0v48h66z"></path><path fill="#F7941D" d="M66 14.93H0V48h66z"></path><path fill="#fff" d="M19.186 6.37h-.624V3.784h-.008l-.592 2.584h-.655l-.581-2.584h-.01V6.37h-.622V3.277h.973l.579 2.44h.005l.57-2.44h.965z"></path><path stroke="#fff" stroke-miterlimit="10" stroke-width="0.02" d="M19.186 6.37h-.624V3.784h-.008l-.592 2.584h-.655l-.581-2.584h-.01V6.37h-.622V3.277h.973l.579 2.44h.005l.57-2.44h.965z"></path><path fill="#fff" d="M22.169 3.823h-1.692v.65h1.555v.547h-1.555v.802h1.769v.546h-2.422v-3.09h2.345z"></path><path stroke="#fff" stroke-miterlimit="10" stroke-width="0.02" d="M22.169 3.823h-1.692v.65h1.555v.547h-1.555v.802h1.769v.546h-2.422v-3.09h2.345z"></path><path fill="#fff" d="M25.843 6.37h-.622V3.784h-.007l-.598 2.584h-.65l-.583-2.584h-.01V6.37h-.62V3.277h.972l.578 2.44h.007l.572-2.44h.96z"></path><path stroke="#fff" stroke-miterlimit="10" stroke-width="0.02" d="M25.843 6.37h-.622V3.784h-.007l-.598 2.584h-.65l-.583-2.584h-.01V6.37h-.62V3.277h.972l.578 2.44h.007l.572-2.44h.96z"></path><path fill="#fff" d="M26.48 3.278h1.552c.782 0 .98.474.98.79 0 .444-.256.572-.39.636.39.142.493.442.493.747 0 .245-.11.48-.276.64-.182.17-.353.279-1.006.279h-1.352zm.642 1.21h.779c.262 0 .472-.101.472-.344 0-.255-.186-.332-.49-.332h-.761zm0 1.35h.817c.323 0 .508-.142.508-.455 0-.272-.238-.373-.478-.373h-.847z"></path><path stroke="#fff" stroke-miterlimit="10" stroke-width="0.02" d="M26.48 3.278h1.552c.782 0 .98.474.98.79 0 .444-.256.572-.39.636.39.142.493.442.493.747 0 .245-.11.48-.276.64-.182.17-.353.279-1.006.279h-1.352V3.277Zm.642 1.21h.779c.262 0 .472-.101.472-.344 0-.255-.186-.332-.49-.332h-.761v.676Zm0 1.35h.817c.323 0 .508-.142.508-.455 0-.272-.238-.373-.478-.373h-.847z"></path><path fill="#fff" d="M32.03 3.823h-1.694v.65h1.557v.547h-1.557v.802h1.77v.546h-2.42v-3.09h2.344z"></path><path stroke="#fff" stroke-miterlimit="10" stroke-width="0.02" d="M32.03 3.823h-1.694v.65h1.557v.547h-1.557v.802h1.77v.546h-2.42v-3.09h2.344z"></path><path fill="#fff" d="M32.648 3.281h1.611c.847 0 1.003.606 1.003.874 0 .339-.18.632-.493.737.264.111.402.205.402.786 0 .451 0 .563.147.612v.082h-.74c-.045-.144-.07-.303-.07-.623 0-.423-.026-.586-.522-.586h-.685v1.21h-.652zm1.43 1.361c.35 0 .52-.118.52-.423 0-.164-.076-.405-.468-.405H33.3v.828z"></path><path stroke="#fff" stroke-miterlimit="10" stroke-width="0.02" d="M32.648 3.281h1.611c.847 0 1.003.606 1.003.874 0 .339-.18.632-.493.737.264.111.402.205.402.786 0 .451 0 .563.147.612v.082h-.74c-.045-.144-.07-.303-.07-.623 0-.423-.026-.586-.522-.586h-.685v1.21h-.652V3.28Zm1.43 1.361c.35 0 .52-.118.52-.423 0-.164-.076-.405-.468-.405H33.3v.828z"></path><path fill="#fff" d="M40.608 3.2h.739l1.22 3.254h-.745l-.246-.724h-1.224l-.255.724h-.728zm-.069 1.993h.847L40.974 4h-.01z"></path><path stroke="#fff" stroke-miterlimit="10" stroke-width="0.02" d="M40.608 3.2h.739l1.22 3.254h-.745l-.246-.724h-1.224l-.255.724h-.728l1.238-3.255Zm-.069 1.993h.847L40.974 4h-.01z"></path><path fill="#fff" d="M42.943 3.2h.715v1.249h1.318v-1.25h.724v3.256h-.724V5.05h-1.318v1.406h-.715z"></path><path stroke="#fff" stroke-miterlimit="10" stroke-width="0.02" d="M42.943 3.2h.715v1.249h1.318v-1.25h.724v3.256h-.724V5.05h-1.318v1.406h-.715z"></path><path fill="#fff" d="M46.42 3.2h.716v2.655h1.59v.6H46.42z"></path><path stroke="#fff" stroke-miterlimit="10" stroke-width="0.02" d="M46.42 3.2h.716v2.655h1.59v.6H46.42z"></path><path fill="#fff" d="M49.939 3.195h-.716v3.257h.716z"></path><path stroke="#fff" stroke-miterlimit="10" stroke-width="0.02" d="M49.939 3.195h-.716v3.257h.716z"></path><path stroke="#fff" stroke-miterlimit="10" stroke-width="0.23" d="m38.294 3.2-1.042 3.35"></path><path fill="#fff" d="M21.652 8.542c0 .069.01.14.016.205a4 4 0 0 0-.402-.017h-.886a10 10 0 0 0 .158 1.272q.04.18.09.34l.07-.16q.233-.498.385-1.135.217.19.4.26-.076.106-.16.289a8 8 0 0 1-.536 1.181q.093.205.21.358.172.243.305.243.065 0 .15-.447.149.197.387.298-.097.396-.178.528-.112.16-.244.161a.58.58 0 0 1-.366-.138 1.9 1.9 0 0 1-.513-.629l-.094.119a2.7 2.7 0 0 1-.69.666 1 1 0 0 0-.355-.411 2.14 2.14 0 0 0 .976-.767l-.072-.23a8 8 0 0 1-.215-1.19c-.021-.2-.044-.403-.06-.608h-1.133v.634h.672q.15 0 .301-.017-.022.306-.054 1.043c-.012.347-.088.567-.22.662a.74.74 0 0 1-.48.178 1.2 1.2 0 0 0-.185-.447q.17.04.268.038.252 0 .271-.421l.035-.68h-.608c-.009.38-.056.738-.125 1.078q-.08.414-.36 1.032a.7.7 0 0 0-.424-.186q.27-.433.398-.861.139-.574.14-1.103v-.818c0-.173-.01-.351-.031-.52.144.008.292.013.436.013h1.07a23 23 0 0 1-.043-.89q.308.05.504.05a1.9 1.9 0 0 0-.1.597l.006.243h.9c.139 0 .27-.005.403-.013-.007.068-.017.134-.017.2m-.372-.637.069.153a1.8 1.8 0 0 0-.372.185 2.067 2.067 0 0 0-.23-.541c.134-.053.247-.126.337-.207l.067.146q.08.145.13.264M27.226 9.757c.154.056.306.09.45.092a2.2 2.2 0 0 0-.155.443 2 2 0 0 1-.23.71q-.197.328-.505.51-.306.171-.928.35a1.2 1.2 0 0 0-.301-.408q.574-.053.84-.156a1.17 1.17 0 0 0 .565-.412c.132-.185.223-.563.263-1.128m-1.245-.633q.274.036.556.036h1.73q.273 0 .555-.036-.035.279-.035.556v.577c0 .2.012.403.035.597l-.2-.017-.222.017c.024-.194.033-.397.033-.597v-.743h-2.066v.878q-.002.3.03.594l-.219-.014-.197.014q.03-.295.03-.594V9.68q0-.277-.03-.556m.151-1.59q.284.021.571.021h1.378q.283 0 .575-.02a3 3 0 0 0-.018.357v.575c0 .133.002.262.018.39q-.292-.016-.575-.017h-1.378q-.287.001-.57.017.017-.191.017-.39v-.575a3 3 0 0 1-.018-.358m2.166.358h-1.814v.613h1.814zm-.518 2.851c.517.3.956.537 1.325.71a1.2 1.2 0 0 0-.283.372 4 4 0 0 0-.562-.413 7 7 0 0 0-.786-.39 1 1 0 0 0 .306-.279"></path><path stroke="#fff" stroke-miterlimit="10" stroke-width="0.23" d="m31.91 8.016-1.039 3.352"></path><path fill="#fff" d="M35.726 10.67H33.42a.4.4 0 0 1-.263-.086.29.29 0 0 1-.106-.233q0-.33.564-.329h.282q.121 0 .238-.093.116-.095.116-.217a.33.33 0 0 0-.18-.297.7.7 0 0 0-.36-.086l.05-.013q.1.1.1.277a.35.35 0 0 1-.118.276.43.43 0 0 1-.29.108.406.406 0 0 1-.402-.406c0-.182.078-.316.238-.41a.94.94 0 0 1 .485-.118q.31.001.53.169.242.183.24.483a.61.61 0 0 1-.194.45.7.7 0 0 1-.253.142q-.164.046-.362.048h-.325q-.044 0-.053.016.145.02.612.02h1.756zm-2.16-1.114q.001-.081-.118-.14-.12.02-.12.162a.2.2 0 0 0 .043.084.15.15 0 0 0 .084.048q.112-.001.111-.154M38.267 11.06h-.713q-.112.222-.41.39a2 2 0 0 1-.278.124 1 1 0 0 1-.134.027.6.6 0 0 1-.137.013q-.276.001-.53-.154-.283-.172-.284-.442 0-.138.115-.219.055 0 .1-.019l.11-.014h1.241q.126-.308.126-.936a.9.9 0 0 0-.066-.319q-.087-.19-.224-.191a.24.24 0 0 0-.157.06.18.18 0 0 0-.069.146v1.144h-.307V9.524a.23.23 0 0 0-.044-.134q-.046-.07-.112-.07-.16.001-.16.204v1.146h-.304V9.48q0-.166.153-.302a.48.48 0 0 1 .317-.139q.114.002.164.042.046.014.155.125.185-.166.36-.167.298.002.467.293.132.234.133.57 0 .519-.11.859l.292.004V9.04h.306zm-1.067.004-.488-.005h-.64v-.008q.012.11.236.208a.9.9 0 0 0 .326.084q.263-.002.566-.279M40.507 10.667h-1.904V9.04h.307v1.321h1.292v-1.32h.306zm-.626-2.009a.34.34 0 0 1-.087.216.3.3 0 0 1-.214.09.28.28 0 0 1-.21-.09.28.28 0 0 1-.089-.208c0-.08.028-.157.084-.217a.29.29 0 0 1 .21-.09q.137 0 .222.087.085.078.083.212M42.754 10.668h-1.906V9.043h.306v1.32h1.294v-1.32h.306z"></path><path fill="#fff" d="M42.982 10.614V8.87a.6.6 0 0 0-.018-.197.7.7 0 0 0-.151-.251l-.121-.027q-.21.002-.345.147a.53.53 0 0 0-.135.373q0 .024.112.118a.4.4 0 0 1 .133.125l-.02.05-.055.048h-.051a.36.36 0 0 1-.22-.06l-.073-.07-.098-.093a.8.8 0 0 1-.034-.2q-.002-.319.229-.524a.8.8 0 0 1 .562-.207q.575-.001.575.76l-.02 1.762zM46.293 9.34h-.3v1.328h-.305V9.34h-.34a.13.13 0 0 0-.08.026q.095.042.195.331.067.229.066.399v.088a.4.4 0 0 1-.026.114.6.6 0 0 1-.078.18q-.129.214-.306.215-.512 0-.513-.663 0-.375.203-.622l-.264-.067a.837.837 0 0 0-.683.14.57.57 0 0 0-.232.485v.203l.031.07.06.126-.011.012-.09-.09v-.134q0-.165.145-.31a.45.45 0 0 1 .32-.142q.21 0 .347.16.135.155.135.37a.45.45 0 0 1-.147.334.48.48 0 0 1-.349.145.7.7 0 0 1-.52-.22.76.76 0 0 1-.213-.551q0-.406.323-.664.302-.242.719-.24.38 0 .619.166a.63.63 0 0 1 .423-.166h.87zm-2.013.872a.3.3 0 0 0-.054-.167.17.17 0 0 0-.143-.076.17.17 0 0 0-.142.07.28.28 0 0 0-.05.162q-.001.091.052.164.055.076.142.076.055-.002.131-.078a.24.24 0 0 0 .064-.151m.95-.208-.01-.103-.014-.061a1 1 0 0 0-.026-.079.5.5 0 0 0-.104-.204h-.026l-.115.22a.6.6 0 0 0-.042.247q0 .404.224.404.044 0 .077-.177l.022-.12zM47.989 9.348h-.473v1.365a10 10 0 0 1-.5.571l-.247-.172.441-.451V9.348h-.421v1.321h-.307V9.043h1.507zm-.482-.757q0 .108-.09.217a.29.29 0 0 1-.214.087.28.28 0 0 1-.21-.087.306.306 0 0 1-.002-.427.28.28 0 0 1 .21-.088c.083 0 .16.027.216.086q.09.076.09.212"></path><path fill="#162B75" d="M13.861 16.383v20.839h38.314v-20.84H13.861"></path><path fill="#fff" d="M51.784 16.773H14.258v20.061h37.526z"></path><path fill="#F7941D" d="M33.865 19.303c3.993-1.075 8.572.056 11.858 3.338 3.29 3.284 4.422 7.852 3.345 11.837a11.4 11.4 0 0 0-2.258-12.92c-3.501-3.496-8.708-4.246-12.945-2.255"></path><path fill="#162B75" d="M26.777 25.707s.272.03.272.27v8.04h-1.32s-.28-.015-.28-.32v-7.112c0-.606-.586-.878-.586-.878zM44.83 25.664h-1.384c-.21.275-2.27 3.836-2.27 3.836s-1.583-2.852-2.126-3.65a.48.48 0 0 0-.354-.186h-2.053s.586.27.586.876v7.099c0 .31.278.319.278.319h1.386v-5.404s1.864 3.23 2.273 3.75c.4-.516 2.174-3.68 2.228-3.767v5.101a.3.3 0 0 0 .28.32h1.433v-7.974c0-.307-.277-.32-.277-.32M32.046 32.36c-.401.12-1.413.092-1.413.092v-5.238h.644c1.146 0 2.845.417 2.845 2.557 0 1.961-1.674 2.46-2.076 2.588m2.5-5.59a4 4 0 0 0-1.515-.843q-.776-.255-2.12-.255h-2.546s.604.268.604.857v7.185c0 .269.226.31.27.313h1.65c.904 0 1.597-.066 2.09-.222a4.3 4.3 0 0 0 1.51-.848c.955-.808 1.434-1.787 1.434-3.098 0-1.312-.458-2.286-1.377-3.09M19.485 27.037v2.888h1.12c.332 0 .615 0 .888-.073.966-.235 1.027-1.119 1.027-1.413 0-.613-.273-.927-.416-1.06-.388-.332-.93-.342-1.438-.342zm-1.565 6.61v-7.16c0-.302-.404-.732-.612-.78h3.416c.46 0 .943 0 1.427.13.815.224 1.96.953 1.96 2.637 0 1.108-.52 2.297-2.008 2.627-.46.108-.897.108-1.402.108h-1.217v2.816h-1.339s-.225-.048-.225-.378M11.885 44.085V42.59h.399c.146 0 .246.002.289.02a.32.32 0 0 1 .182.146.54.54 0 0 1 .07.293.54.54 0 0 1-.06.272.4.4 0 0 1-.152.154.8.8 0 0 1-.319.044h-.164v.565zm.245-1.242v.424h.14a.5.5 0 0 0 .186-.02.15.15 0 0 0 .081-.07.2.2 0 0 0 .033-.126.2.2 0 0 0-.033-.124.16.16 0 0 0-.081-.07.8.8 0 0 0-.203-.014zM13.256 44.084h-.238v-1.086h.218v.156c.04-.073.07-.12.101-.143a.15.15 0 0 1 .104-.038.24.24 0 0 1 .154.056l-.072.251q-.06-.05-.11-.05a.1.1 0 0 0-.087.038q-.04.036-.055.133-.015.093-.016.35zM13.643 43.529q0-.164.062-.294a.5.5 0 0 1 .166-.194.4.4 0 0 1 .23-.068.4.4 0 0 1 .336.169.64.64 0 0 1 .127.394.7.7 0 0 1-.066.303.425.425 0 0 1-.398.27.43.43 0 0 1-.328-.15q-.13-.15-.13-.43m.241.014q.002.163.063.25c.046.052.098.083.157.083.063 0 .11-.03.154-.083a.44.44 0 0 0 .063-.255.4.4 0 0 0-.065-.245.18.18 0 0 0-.154-.084q-.089-.001-.155.084a.42.42 0 0 0-.063.25M15.153 42.998v.23h-.162v.436q-.001.142.01.166.01.04.058.042.03 0 .091-.028l.023.22a.4.4 0 0 1-.187.043.2.2 0 0 1-.142-.043c-.038-.026-.06-.066-.075-.123a1.4 1.4 0 0 1-.014-.243v-.47h-.109v-.23h.11v-.215l.235-.166v.38zM15.835 43.74l.234.048a.5.5 0 0 1-.147.244.37.37 0 0 1-.24.076.38.38 0 0 1-.307-.131c-.085-.103-.125-.243-.125-.43 0-.185.043-.325.128-.434a.34.34 0 0 1 .28-.14q.189 0 .301.143.122.16.122.475v.034h-.59q0 .13.058.2a.16.16 0 0 0 .134.07q.115-.002.152-.154m.013-.29a.35.35 0 0 0-.054-.194.16.16 0 0 0-.123-.06q-.076-.001-.124.065-.055.064-.054.19zM17.05 43.322l-.233.048c-.017-.113-.068-.168-.162-.168a.17.17 0 0 0-.141.07q-.052.075-.052.252 0 .19.052.272.054.08.143.081a.15.15 0 0 0 .11-.045q.045-.046.06-.164l.235.048q-.073.393-.412.393-.22 0-.326-.164a.74.74 0 0 1-.103-.399q0-.28.12-.426a.39.39 0 0 1 .31-.147q.157 0 .259.087a.47.47 0 0 1 .14.262M17.633 42.998v.23h-.162v.436q.001.142.01.166.014.04.058.042.03 0 .094-.028l.019.22a.4.4 0 0 1-.184.043.22.22 0 0 1-.144-.043q-.055-.038-.072-.123a1.3 1.3 0 0 1-.014-.243v-.47h-.107v-.23h.107v-.215l.233-.166v.38zM17.797 42.59h.238v.261h-.238zm0 .408h.238v1.086h-.238zM19.085 44.084h-.236v-.554q0-.168-.014-.224a.13.13 0 0 0-.048-.081.12.12 0 0 0-.083-.03.17.17 0 0 0-.107.035.2.2 0 0 0-.068.109q-.019.066-.02.253v.492h-.236v-1.086h.218v.16a.4.4 0 0 1 .134-.137.3.3 0 0 1 .162-.048.27.27 0 0 1 .173.056q.07.054.1.136.024.088.025.243zM19.303 44.157l.267.038c.005.037.017.069.039.084.02.015.05.027.095.027a.3.3 0 0 0 .129-.027.2.2 0 0 0 .053-.06.6.6 0 0 0 .016-.152v-.162a.4.4 0 0 1-.117.136.289.289 0 0 1-.396-.091q-.119-.154-.118-.417 0-.278.11-.416a.32.32 0 0 1 .266-.144c.052 0 .103.018.149.045q.069.046.12.132v-.151h.223v.977a1 1 0 0 1-.043.337.32.32 0 0 1-.133.158.5.5 0 0 1-.248.05.5.5 0 0 1-.234-.038.27.27 0 0 1-.133-.117.33.33 0 0 1-.045-.177zm.21-.638q-.002.172.055.255.055.077.131.077c.06 0 .105-.025.148-.08q.058-.08.057-.245a.47.47 0 0 0-.055-.253c-.041-.05-.086-.077-.145-.077q-.082 0-.136.075-.057.083-.056.248M21.144 44.085v-.632l-.45-.863h.29l.289.587.283-.587h.286l-.45.863v.631zM21.785 43.529q0-.164.061-.294a.5.5 0 0 1 .165-.194.4.4 0 0 1 .232-.068q.215.001.336.169a.65.65 0 0 1 .124.394.7.7 0 0 1-.065.303.5.5 0 0 1-.167.202.43.43 0 0 1-.559-.082q-.127-.15-.127-.43m.24.014q.001.163.064.25c.043.052.095.083.155.083q.09-.002.152-.083a.42.42 0 0 0 .066-.255.4.4 0 0 0-.066-.245.19.19 0 0 0-.153-.084.19.19 0 0 0-.155.084.42.42 0 0 0-.063.25M23.472 44.082v-.165a.37.37 0 0 1-.128.139.3.3 0 0 1-.168.05.26.26 0 0 1-.154-.047.25.25 0 0 1-.106-.129.7.7 0 0 1-.035-.245v-.689h.237v.498q.001.216.01.273c.01.038.023.067.048.087a.13.13 0 0 0 .089.033.16.16 0 0 0 .108-.041.2.2 0 0 0 .066-.109q.016-.06.016-.284v-.457h.236v1.086zM24.164 44.084h-.238v-1.086h.218v.156a.5.5 0 0 1 .101-.143.14.14 0 0 1 .104-.038.25.25 0 0 1 .154.056l-.074.251q-.056-.05-.109-.05a.11.11 0 0 0-.086.038q-.04.036-.055.133a3 3 0 0 0-.015.35zM25.322 42.59h-.246v1.494h.246zM26.369 44.084h-.236v-.554q0-.168-.015-.224a.13.13 0 0 0-.048-.081.12.12 0 0 0-.082-.03.2.2 0 0 0-.11.035.24.24 0 0 0-.066.109 1 1 0 0 0-.019.253v.492h-.236v-1.086h.22v.16a.4.4 0 0 1 .131-.137.3.3 0 0 1 .162-.048q.102 0 .173.056.075.054.097.136.028.088.029.243zM26.523 43.776l.237-.043q.031.17.19.169.085 0 .128-.033.04-.031.04-.084 0-.039-.017-.057-.021-.024-.078-.033-.29-.08-.37-.15c-.067-.055-.096-.138-.096-.24q-.002-.149.097-.239.092-.092.276-.093.177-.001.268.069a.36.36 0 0 1 .125.219l-.22.048q-.03-.127-.167-.127-.087 0-.124.024-.039.025-.038.064c0 .024.012.04.033.058a1 1 0 0 0 .21.074.6.6 0 0 1 .268.136c.048.054.07.119.07.212a.33.33 0 0 1-.108.255.4.4 0 0 1-.297.103.45.45 0 0 1-.282-.084.43.43 0 0 1-.145-.248M28.146 44.082v-.165a.36.36 0 0 1-.296.189.27.27 0 0 1-.157-.047.26.26 0 0 1-.104-.129.7.7 0 0 1-.034-.245v-.689h.237v.498q0 .216.01.273c.009.038.02.067.048.087a.12.12 0 0 0 .088.033.16.16 0 0 0 .11-.041.2.2 0 0 0 .065-.109q.015-.06.015-.284v-.457h.237v1.086zM28.837 44.084h-.235v-1.086h.215v.156a.5.5 0 0 1 .101-.143.14.14 0 0 1 .104-.038q.079 0 .155.056l-.075.251a.17.17 0 0 0-.11-.05.1.1 0 0 0-.084.038q-.041.036-.056.133a2.3 2.3 0 0 0-.015.35zM29.454 43.328l-.214-.046c.027-.107.068-.19.128-.235a.4.4 0 0 1 .258-.074c.1 0 .175.018.226.045a.21.21 0 0 1 .114.112q.035.072.033.263l-.001.333q.002.143.011.212a1 1 0 0 0 .041.146h-.23l-.031-.12a.5.5 0 0 1-.129.108.3.3 0 0 1-.15.035.28.28 0 0 1-.211-.086.32.32 0 0 1-.082-.23.3.3 0 0 1 .036-.162.25.25 0 0 1 .09-.11.7.7 0 0 1 .199-.074 1 1 0 0 0 .226-.069q0-.091-.012-.12c-.007-.02-.024-.032-.045-.044a.2.2 0 0 0-.1-.017q-.061-.002-.098.027-.036.027-.059.106m.314.236q-.043.016-.14.04-.109.029-.142.064a.13.13 0 0 0-.034.091q0 .062.036.106c.025.03.058.04.095.04a.15.15 0 0 0 .098-.032.2.2 0 0 0 .068-.08.5.5 0 0 0 .02-.17zM31.042 44.084h-.235v-.554q0-.168-.012-.224a.14.14 0 0 0-.054-.081c-.022-.023-.048-.03-.08-.03q-.061-.001-.107.035a.18.18 0 0 0-.066.109 1 1 0 0 0-.022.253v.492h-.236v-1.086h.22v.16a.4.4 0 0 1 .129-.137.3.3 0 0 1 .162-.048q.106 0 .175.056.07.054.097.136.03.088.029.243zM32.06 43.322l-.233.048q-.023-.169-.162-.168a.18.18 0 0 0-.142.07.5.5 0 0 0-.051.252q0 .19.05.272.059.08.143.081a.16.16 0 0 0 .112-.045.34.34 0 0 0 .061-.164l.232.048c-.046.262-.186.393-.412.393a.36.36 0 0 1-.323-.164.74.74 0 0 1-.107-.399q0-.28.121-.426a.39.39 0 0 1 .314-.147q.157 0 .255.087a.45.45 0 0 1 .142.262M32.755 43.74l.234.048a.47.47 0 0 1-.148.244.36.36 0 0 1-.238.076.38.38 0 0 1-.308-.131c-.082-.103-.125-.243-.125-.43 0-.185.043-.325.125-.434a.35.35 0 0 1 .282-.14.36.36 0 0 1 .3.143q.123.16.123.475v.034h-.59q.004.13.058.2a.16.16 0 0 0 .135.07q.114-.002.152-.154m.01-.29c0-.088-.018-.148-.053-.194a.15.15 0 0 0-.121-.06q-.075-.001-.125.065a.3.3 0 0 0-.05.19zM34.717 44.084h-.27l-.107-.342h-.492l-.102.342h-.262l.48-1.494h.263zm-.455-.592-.17-.555-.166.555zM35.656 44.084h-.236v-.554a1 1 0 0 0-.013-.224.14.14 0 0 0-.05-.081.12.12 0 0 0-.083-.03.17.17 0 0 0-.106.035.2.2 0 0 0-.07.109 1 1 0 0 0-.019.253v.492h-.233v-1.086h.217v.16a.4.4 0 0 1 .132-.137.3.3 0 0 1 .162-.048c.067 0 .127.018.172.056.05.037.08.08.1.136q.026.088.027.243zM36.711 44.085h-.219v-.162a.4.4 0 0 1-.126.14.3.3 0 0 1-.151.046q-.153 0-.26-.148-.112-.152-.111-.425c0-.182.036-.325.107-.42a.32.32 0 0 1 .266-.143.26.26 0 0 1 .138.039.4.4 0 0 1 .12.115v-.537h.236zm-.63-.566q.001.148.026.216.029.075.071.112a.2.2 0 0 0 .106.038q.077 0 .135-.087a.45.45 0 0 0 .057-.254q0-.185-.057-.268-.056-.08-.14-.08-.08-.002-.139.078a.44.44 0 0 0-.058.245M37.42 42.59h.453q.175 0 .258.033c.06.03.114.07.16.133q.077.088.117.235c.031.095.043.217.043.356q.002.196-.043.34a.7.7 0 0 1-.111.226c-.048.058-.1.1-.166.128a.6.6 0 0 1-.244.044h-.467zm.25.253v.988h.186q.12 0 .171-.024a.2.2 0 0 0 .088-.067.4.4 0 0 0 .059-.145q.02-.097.02-.258a1.3 1.3 0 0 0-.02-.262.3.3 0 0 0-.074-.149.24.24 0 0 0-.116-.074c-.036-.009-.102-.009-.203-.009zM39.18 43.74l.234.048a.5.5 0 0 1-.147.244.37.37 0 0 1-.244.076.37.37 0 0 1-.304-.131c-.084-.103-.127-.243-.127-.43 0-.185.043-.325.127-.434a.34.34 0 0 1 .283-.14c.12 0 .225.048.299.143.08.106.124.266.124.475l-.003.034h-.587q0 .13.057.2a.16.16 0 0 0 .133.07q.115-.002.155-.154m.012-.29c-.005-.088-.02-.148-.055-.194a.154.154 0 0 0-.249.005.3.3 0 0 0-.05.19zM39.61 42.999h.218v.159a.35.35 0 0 1 .118-.135.3.3 0 0 1 .16-.05q.152.001.262.146a.7.7 0 0 1 .11.412c0 .187-.04.329-.112.43q-.11.148-.26.147a.3.3 0 0 1-.135-.034.5.5 0 0 1-.126-.122v.544h-.236zm.232.524q0 .181.06.27c.037.06.087.086.145.086q.08.002.135-.079c.036-.05.053-.143.053-.262q.001-.175-.057-.254-.055-.082-.136-.083a.17.17 0 0 0-.141.08.43.43 0 0 0-.059.242M40.607 43.529a.65.65 0 0 1 .065-.294.47.47 0 0 1 .164-.194.4.4 0 0 1 .232-.068q.214.001.337.169a.65.65 0 0 1 .123.394.7.7 0 0 1-.065.303.5.5 0 0 1-.169.202.422.422 0 0 1-.554-.082q-.131-.15-.132-.43m.243.014q0 .163.063.25a.2.2 0 0 0 .157.083q.09-.002.151-.083a.42.42 0 0 0 .066-.255.4.4 0 0 0-.066-.245.185.185 0 0 0-.309 0q-.062.084-.062.25M41.629 43.776l.235-.043q.034.17.192.169c.058 0 .096-.01.124-.033q.044-.031.044-.084 0-.039-.019-.057-.016-.024-.078-.033-.289-.08-.369-.15a.3.3 0 0 1-.099-.24q.001-.149.1-.239a.4.4 0 0 1 .277-.093q.178-.001.267.069.09.065.128.219l-.224.048q-.03-.127-.166-.127-.088 0-.124.024c-.022.017-.038.038-.038.064 0 .024.012.04.033.058q.038.024.21.074a.57.57 0 0 1 .268.136c.048.054.07.119.07.212a.34.34 0 0 1-.108.255.4.4 0 0 1-.296.103.45.45 0 0 1-.283-.084.42.42 0 0 1-.144-.248M42.668 42.59h.233v.261h-.233zm0 .408h.233v1.086h-.233zM43.553 42.998v.23h-.162v.436q0 .142.008.166.013.04.057.042.034 0 .094-.028l.02.22a.4.4 0 0 1-.184.043.22.22 0 0 1-.144-.043.2.2 0 0 1-.073-.123 1.4 1.4 0 0 1-.013-.243v-.47h-.11v-.23h.11v-.215l.235-.166v.38zM43.633 43.776l.235-.043q.034.17.192.169.086 0 .126-.033.044-.031.044-.084 0-.039-.018-.057a.13.13 0 0 0-.078-.033q-.292-.08-.37-.15a.3.3 0 0 1-.099-.24c0-.1.036-.178.1-.239q.092-.092.275-.093c.12 0 .205.021.266.069.063.043.103.117.129.219l-.22.048q-.031-.127-.167-.127-.09 0-.124.024-.038.025-.038.064c0 .024.01.04.033.058.02.016.093.041.21.074a.6.6 0 0 1 .268.136.3.3 0 0 1 .067.212.34.34 0 0 1-.105.255.41.41 0 0 1-.299.103.45.45 0 0 1-.282-.084.42.42 0 0 1-.145-.248M45.388 42.59h-.245v1.494h.245zM46.435 44.084h-.238v-.554q.001-.168-.01-.224a.15.15 0 0 0-.048-.081.13.13 0 0 0-.087-.03.2.2 0 0 0-.106.035.22.22 0 0 0-.067.109q-.018.066-.017.253v.492h-.239v-1.086h.22v.16a.4.4 0 0 1 .13-.137.3.3 0 0 1 .164-.048q.104 0 .172.056.072.054.1.136.025.088.026.243zM47.15 44.085V42.59h.371l.224 1.02.222-1.02h.372v1.494h-.23v-1.18l-.245 1.18h-.238l-.244-1.18v1.18zM48.758 43.328l-.215-.046a.4.4 0 0 1 .128-.235.4.4 0 0 1 .257-.074.5.5 0 0 1 .229.045q.08.038.114.112a.7.7 0 0 1 .032.263l-.003.333q.002.143.011.212a.7.7 0 0 0 .045.146h-.235l-.028-.12a.4.4 0 0 1-.131.108.3.3 0 0 1-.147.035.28.28 0 0 1-.215-.086.33.33 0 0 1-.08-.23q0-.095.032-.162a.3.3 0 0 1 .097-.11.7.7 0 0 1 .195-.074c.108-.022.186-.048.23-.069q0-.091-.016-.12c-.007-.02-.023-.032-.045-.044q-.035-.019-.099-.017-.063-.002-.099.027-.036.027-.058.106m.317.236q-.045.016-.14.04-.111.029-.144.064a.14.14 0 0 0-.037.091q0 .062.04.106c.028.03.056.04.093.04a.16.16 0 0 0 .099-.032.17.17 0 0 0 .069-.08.6.6 0 0 0 .02-.17zM49.77 42.59h-.237v1.494h.236zM50.186 43.328l-.212-.046c.027-.107.068-.19.129-.235a.4.4 0 0 1 .257-.074c.099 0 .173.018.228.045a.2.2 0 0 1 .109.112c.027.047.036.136.036.263v.333c0 .096 0 .165.01.212a1 1 0 0 0 .043.146h-.236l-.028-.12a.4.4 0 0 1-.131.108.3.3 0 0 1-.147.035.28.28 0 0 1-.212-.086.32.32 0 0 1-.08-.23q-.001-.095.032-.162a.27.27 0 0 1 .094-.11.7.7 0 0 1 .197-.074 1 1 0 0 0 .228-.069q0-.091-.013-.12a.1.1 0 0 0-.046-.044q-.035-.019-.097-.017-.061-.002-.1.027-.037.027-.06.106m.316.236q-.045.016-.14.04-.11.029-.143.064a.13.13 0 0 0-.034.091q0 .062.036.106c.027.03.056.04.094.04a.2.2 0 0 0 .102-.032.17.17 0 0 0 .064-.08.5.5 0 0 0 .02-.17zM50.854 42.996h.25l.215.77.207-.77h.244l-.314 1.044-.06.203a.8.8 0 0 1-.08.167.26.26 0 0 1-.1.083.53.53 0 0 1-.282.012l-.023-.227q.055.014.1.013a.15.15 0 0 0 .11-.043.4.4 0 0 0 .072-.161zM51.84 43.776l.234-.043q.031.17.193.169.083 0 .125-.033.043-.031.043-.084 0-.039-.02-.057a.13.13 0 0 0-.077-.033q-.289-.08-.369-.15a.3.3 0 0 1-.098-.24q.001-.149.097-.239.093-.092.279-.093c.122 0 .205.021.266.069q.092.065.127.219l-.221.048q-.031-.127-.17-.127c-.058 0-.095.007-.123.024q-.035.025-.035.064c0 .024.012.04.033.058a1 1 0 0 0 .209.074.6.6 0 0 1 .268.136c.046.054.07.119.07.212a.33.33 0 0 1-.108.255.4.4 0 0 1-.296.103.46.46 0 0 1-.286-.084.4.4 0 0 1-.141-.248M52.879 42.59h.233v.261h-.233zm0 .408h.233v1.086h-.233zM53.529 43.328l-.215-.046c.03-.107.07-.19.131-.235a.4.4 0 0 1 .256-.074c.1 0 .175.018.227.045a.2.2 0 0 1 .112.112.7.7 0 0 1 .036.263l-.001.333q-.002.143.008.212.013.066.044.146h-.232l-.03-.12a.4.4 0 0 1-.132.108.3.3 0 0 1-.146.035.27.27 0 0 1-.212-.086.32.32 0 0 1-.084-.23q0-.095.035-.162a.27.27 0 0 1 .094-.11.7.7 0 0 1 .195-.074 1 1 0 0 0 .23-.069q0-.091-.013-.12a.1.1 0 0 0-.045-.044q-.036-.019-.099-.017-.06-.002-.099.027-.036.027-.06.106m.316.236q-.045.016-.14.04c-.072.02-.123.04-.144.064a.13.13 0 0 0-.032.091q-.002.062.036.106c.025.03.056.04.093.04a.16.16 0 0 0 .1-.032.16.16 0 0 0 .067-.08.5.5 0 0 0 .02-.17z"></path><path fill="#fff" d="M11.809 41.421v-2h.533q.3-.002.39.027.144.047.242.2.095.15.096.39-.002.218-.084.362a.5.5 0 0 1-.205.208q-.124.06-.424.06h-.218v.753zm.33-1.662v.57h.183a.8.8 0 0 0 .252-.025.23.23 0 0 0 .11-.096.3.3 0 0 0 .041-.166.3.3 0 0 0-.044-.168.2.2 0 0 0-.107-.091 1 1 0 0 0-.273-.024zM14.033 40.962l.313.066a.64.64 0 0 1-.195.322.5.5 0 0 1-.325.106.49.49 0 0 1-.408-.178q-.17-.202-.17-.573 0-.368.172-.581a.45.45 0 0 1 .375-.187c.174 0 .305.06.402.187q.165.218.166.64l-.002.042h-.79a.44.44 0 0 0 .079.267q.074.098.18.097c.101 0 .172-.07.203-.208m.017-.392a.43.43 0 0 0-.073-.254.2.2 0 0 0-.162-.087.2.2 0 0 0-.167.092.4.4 0 0 0-.07.25zM14.922 41.423h-.317v-1.452h.291v.208a.6.6 0 0 1 .136-.19.2.2 0 0 1 .137-.048c.071 0 .143.021.208.07l-.1.337q-.078-.063-.146-.064a.17.17 0 0 0-.118.049.34.34 0 0 0-.07.173 3 3 0 0 0-.022.47zM15.498 41.421v-2h.316v.72a.5.5 0 0 1 .158-.151c.06-.036.12-.05.188-.05q.212 0 .354.188.145.19.147.563 0 .373-.149.566-.15.2-.35.201a.37.37 0 0 1-.202-.065.5.5 0 0 1-.169-.184v.212zm.31-.755q.002.189.038.286a.35.35 0 0 0 .1.151q.068.052.14.051.1 0 .178-.107.073-.11.075-.348a.7.7 0 0 0-.075-.358q-.076-.11-.193-.111-.108 0-.186.111a.57.57 0 0 0-.077.325M17.153 40.412l-.289-.064q.054-.22.174-.315.12-.096.345-.096.197.001.305.056.102.06.152.151c.029.063.044.184.044.352l-.006.45c0 .122.008.218.017.279a.7.7 0 0 0 .06.194h-.315l-.043-.156a.6.6 0 0 1-.17.145.45.45 0 0 1-.199.048.37.37 0 0 1-.282-.117.42.42 0 0 1-.114-.311.46.46 0 0 1 .047-.217.4.4 0 0 1 .125-.144.9.9 0 0 1 .263-.098c.149-.031.247-.066.306-.092a.5.5 0 0 0-.016-.161.14.14 0 0 0-.064-.064.3.3 0 0 0-.128-.023c-.056 0-.104.01-.135.038q-.047.041-.077.145m.42.313c-.039.017-.102.033-.188.057q-.146.038-.192.087-.044.044-.043.118 0 .086.049.142a.16.16 0 0 0 .125.055.24.24 0 0 0 .132-.043.25.25 0 0 0 .092-.109.7.7 0 0 0 .025-.229zM19.286 41.421h-.295v-.212a.5.5 0 0 1-.168.186.36.36 0 0 1-.202.063c-.136 0-.249-.068-.35-.2q-.15-.196-.15-.567.002-.372.146-.563a.44.44 0 0 1 .36-.189q.096-.002.184.051a.5.5 0 0 1 .16.152v-.72h.315zm-.839-.755q-.001.197.034.296a.3.3 0 0 0 .095.144q.06.048.141.048.102 0 .178-.112a.6.6 0 0 0 .078-.337c0-.168-.025-.286-.073-.363q-.078-.11-.193-.112-.105 0-.184.112a.57.57 0 0 0-.076.324M19.833 40.412l-.286-.064a.54.54 0 0 1 .17-.315.55.55 0 0 1 .346-.096q.2.001.306.056.103.06.151.151c.028.063.043.184.043.352l-.002.45c0 .122.005.218.017.279a.8.8 0 0 0 .053.194h-.311l-.041-.156a.6.6 0 0 1-.174.145.44.44 0 0 1-.195.048.38.38 0 0 1-.285-.117.43.43 0 0 1-.111-.311q-.001-.123.047-.217a.4.4 0 0 1 .124-.144.9.9 0 0 1 .264-.098c.143-.031.248-.066.305-.092a.6.6 0 0 0-.017-.161.16.16 0 0 0-.062-.064.3.3 0 0 0-.13-.023c-.057 0-.1.01-.132.038q-.05.041-.08.145m.422.313c-.04.017-.104.033-.188.057q-.147.038-.19.087a.16.16 0 0 0-.046.118q0 .086.05.142a.16.16 0 0 0 .126.055.25.25 0 0 0 .132-.043.24.24 0 0 0 .09-.109.8.8 0 0 0 .026-.229zM21.96 41.423h-.319v-.74q0-.225-.015-.298a.22.22 0 0 0-.068-.113.17.17 0 0 0-.111-.04.24.24 0 0 0-.144.052.3.3 0 0 0-.09.14 1.6 1.6 0 0 0-.024.345v.654h-.316v-1.452h.291v.215a.7.7 0 0 1 .176-.188.4.4 0 0 1 .218-.057q.137-.002.233.07.095.072.13.185a1.1 1.1 0 0 1 .04.326zM22.514 40.412l-.287-.064q.051-.22.173-.315.118-.096.343-.096.202.001.306.056.105.06.152.151c.029.063.043.184.043.352l-.002.45c0 .122.005.218.017.279q.015.094.056.194h-.314l-.04-.156a.6.6 0 0 1-.174.145.43.43 0 0 1-.195.048.38.38 0 0 1-.286-.117.43.43 0 0 1-.113-.311q.001-.123.05-.217a.34.34 0 0 1 .124-.144.9.9 0 0 1 .262-.098c.148-.031.249-.066.307-.092a.5.5 0 0 0-.017-.161.16.16 0 0 0-.062-.064.3.3 0 0 0-.13-.023c-.057 0-.102.01-.135.038a.3.3 0 0 0-.078.145m.422.313c-.04.017-.101.033-.19.057-.094.026-.16.054-.189.087a.16.16 0 0 0-.045.118q0 .086.048.142a.16.16 0 0 0 .126.055.23.23 0 0 0 .132-.043.23.23 0 0 0 .092-.109.7.7 0 0 0 .026-.229zM24.642 41.423h-.318v-.74q0-.225-.017-.298a.23.23 0 0 0-.065-.113.17.17 0 0 0-.113-.04.23.23 0 0 0-.142.052.3.3 0 0 0-.09.14q-.028.094-.027.345v.654h-.315v-1.452h.294v.215a.6.6 0 0 1 .174-.188.4.4 0 0 1 .216-.057q.14-.002.234.07c.063.048.109.11.13.185q.04.112.04.326zM25.925 39.422h-.331v2h.33zM27.326 41.423h-.316v-.74q-.001-.225-.02-.298a.2.2 0 0 0-.066-.113.16.16 0 0 0-.109-.04.23.23 0 0 0-.144.052.3.3 0 0 0-.091.14 1.6 1.6 0 0 0-.025.345v.654h-.319v-1.452h.293v.215a.7.7 0 0 1 .177-.188.44.44 0 0 1 .217-.057.364.364 0 0 1 .367.255q.035.112.036.326zM27.535 41.012l.317-.058q.039.229.252.229a.3.3 0 0 0 .172-.043.14.14 0 0 0 .055-.116.1.1 0 0 0-.024-.075.3.3 0 0 0-.102-.048q-.393-.101-.493-.195a.4.4 0 0 1-.135-.32q0-.203.13-.324c.086-.083.212-.12.373-.12.16 0 .275.027.36.09a.5.5 0 0 1 .168.29l-.298.069c-.025-.12-.101-.174-.225-.174q-.114 0-.166.032a.1.1 0 0 0-.049.087c0 .036.015.056.047.079q.043.037.28.099.263.075.36.18c.06.072.092.163.092.282 0 .139-.051.257-.144.343a.56.56 0 0 1-.4.14.58.58 0 0 1-.377-.116.53.53 0 0 1-.192-.332M29.703 41.42v-.217a.5.5 0 0 1-.172.186.41.41 0 0 1-.433.006.4.4 0 0 1-.14-.175 1 1 0 0 1-.044-.33v-.921h.317v.671q0 .283.014.36.014.076.063.12.048.045.117.045a.25.25 0 0 0 .234-.2q.022-.087.022-.382v-.614h.316v1.451zM30.629 41.423h-.317v-1.452h.292v.208a.6.6 0 0 1 .138-.19.2.2 0 0 1 .137-.048q.107-.002.204.07l-.098.337a.24.24 0 0 0-.147-.064.16.16 0 0 0-.116.049.3.3 0 0 0-.072.173 3 3 0 0 0-.021.47zM31.455 40.412l-.286-.064a.55.55 0 0 1 .175-.315q.115-.096.343-.096.198.001.303.056.105.06.152.151c.027.063.043.184.043.352l-.002.45c0 .122.004.218.017.279.01.063.026.127.057.194h-.315l-.04-.156a.6.6 0 0 1-.175.145.4.4 0 0 1-.194.048.38.38 0 0 1-.286-.117.43.43 0 0 1-.11-.311q-.001-.123.046-.217a.36.36 0 0 1 .127-.144.9.9 0 0 1 .263-.098c.145-.031.246-.066.304-.092a.5.5 0 0 0-.018-.161c-.008-.025-.032-.046-.062-.064a.3.3 0 0 0-.127-.023c-.059 0-.104.01-.135.038q-.05.041-.08.145m.422.313c-.038.017-.102.033-.185.057-.1.026-.162.054-.194.087a.17.17 0 0 0-.046.118q.001.086.05.142a.16.16 0 0 0 .126.055c.043 0 .09-.014.133-.043a.25.25 0 0 0 .091-.109.8.8 0 0 0 .025-.229zM33.582 41.423h-.317v-.74q0-.225-.016-.298a.2.2 0 0 0-.066-.113.17.17 0 0 0-.11-.04.22.22 0 0 0-.142.052.27.27 0 0 0-.093.14q-.025.094-.026.345v.654h-.316v-1.452h.291v.215a.7.7 0 0 1 .176-.188.43.43 0 0 1 .218-.057q.14-.002.232.07.099.072.134.185.035.112.035.326zM33.793 41.012l.316-.058q.042.229.255.229.11-.001.169-.043a.14.14 0 0 0 .056-.116c0-.032-.005-.056-.025-.075a.3.3 0 0 0-.104-.048q-.387-.101-.491-.195a.4.4 0 0 1-.133-.32q0-.203.131-.324c.087-.083.21-.12.373-.12.153 0 .275.027.353.09q.124.088.174.29l-.298.069c-.028-.12-.102-.174-.224-.174q-.116 0-.165.032a.1.1 0 0 0-.05.087c0 .036.016.056.047.079q.042.037.278.099.266.075.359.18a.4.4 0 0 1 .091.282.45.45 0 0 1-.141.343.57.57 0 0 1-.4.14.58.58 0 0 1-.378-.116.56.56 0 0 1-.193-.332M35.82 39.422h.604c.157 0 .272.014.35.05q.116.051.214.17a.9.9 0 0 1 .154.316q.057.194.058.484 0 .26-.06.45a.9.9 0 0 1-.15.308.6.6 0 0 1-.217.166.8.8 0 0 1-.33.055h-.623zm.331.337v1.325h.25q.157 0 .232-.029a.25.25 0 0 0 .115-.09.5.5 0 0 0 .078-.192 1.7 1.7 0 0 0 .03-.348 1.7 1.7 0 0 0-.03-.348.5.5 0 0 0-.096-.204.33.33 0 0 0-.157-.097 1.5 1.5 0 0 0-.272-.017zM38.173 40.962l.31.066a.6.6 0 0 1-.194.322.5.5 0 0 1-.325.106.49.49 0 0 1-.408-.178q-.168-.202-.167-.573 0-.368.17-.581a.45.45 0 0 1 .374-.187q.257-.002.402.187.167.218.167.64v.042h-.792q.001.173.079.267a.22.22 0 0 0 .18.097q.153 0 .204-.208m.015-.392c-.003-.11-.026-.2-.073-.254a.2.2 0 0 0-.16-.087q-.1 0-.172.092a.4.4 0 0 0-.068.25zM38.748 39.976h.294v.212a.55.55 0 0 1 .159-.182.37.37 0 0 1 .212-.065q.205-.002.352.196.148.192.147.55c0 .24-.048.443-.147.574q-.148.197-.352.199a.33.33 0 0 1-.174-.047.6.6 0 0 1-.174-.165v.73h-.317zm.313.7c0 .163.027.288.08.363s.118.118.193.118.132-.039.183-.108q.072-.109.073-.354c0-.152-.026-.27-.078-.342-.048-.072-.111-.108-.18-.108a.23.23 0 0 0-.195.105.6.6 0 0 0-.076.326M40.09 40.677a.9.9 0 0 1 .083-.384.6.6 0 0 1 .222-.266.54.54 0 0 1 .306-.086q.29 0 .452.222.166.226.166.528 0 .225-.087.404a.6.6 0 0 1-.224.272.53.53 0 0 1-.304.091.56.56 0 0 1-.44-.2c-.117-.138-.174-.328-.174-.582m.323.025c0 .146.026.254.084.334a.26.26 0 0 0 .21.11c.082 0 .144-.038.202-.114q.087-.112.088-.336c0-.15-.03-.255-.09-.329q-.082-.113-.205-.115-.118.002-.205.115-.086.114-.084.334M41.455 41.012l.317-.058q.038.229.252.229a.3.3 0 0 0 .172-.043.14.14 0 0 0 .055-.116.1.1 0 0 0-.024-.075.3.3 0 0 0-.104-.048q-.387-.101-.491-.195a.4.4 0 0 1-.134-.32q0-.203.131-.324c.085-.083.21-.12.37-.12s.275.027.357.09q.123.088.172.29l-.298.069c-.025-.12-.102-.174-.225-.174q-.112 0-.164.032a.1.1 0 0 0-.051.087c0 .036.015.056.046.079q.044.037.282.099.262.075.357.18a.4.4 0 0 1 .091.282.44.44 0 0 1-.141.343.56.56 0 0 1-.4.14.57.57 0 0 1-.376-.116.54.54 0 0 1-.194-.332M42.846 39.422h.316v.353h-.316zm0 .55h.316v1.45h-.316zM44.027 39.974v.305h-.215v.588q0 .185.008.218.02.056.08.056.042 0 .127-.039l.026.3a.55.55 0 0 1-.248.056.3.3 0 0 1-.192-.055.34.34 0 0 1-.1-.166c-.009-.057-.02-.16-.02-.325v-.633h-.143v-.306h.144v-.287l.318-.225v.512zM44.885 41.422v-2h.495l.3 1.367.299-1.367h.496v2h-.308v-1.576l-.329 1.576h-.32l-.325-1.576v1.576zM47.037 40.412l-.284-.064a.5.5 0 0 1 .171-.315q.12-.096.342-.096a.7.7 0 0 1 .306.056q.104.06.152.151c.029.063.046.184.046.352l-.005.45c0 .122.005.218.017.279.008.063.03.127.056.194h-.313l-.042-.156a.6.6 0 0 1-.174.145.4.4 0 0 1-.194.048.38.38 0 0 1-.285-.117.43.43 0 0 1-.111-.311q-.001-.123.047-.217a.35.35 0 0 1 .127-.144.8.8 0 0 1 .263-.098c.144-.031.245-.066.303-.092a.5.5 0 0 0-.017-.161.14.14 0 0 0-.062-.064.3.3 0 0 0-.13-.023c-.057 0-.102.01-.133.038q-.048.041-.08.145m.422.313c-.041.017-.103.033-.187.057q-.147.038-.192.087a.17.17 0 0 0-.046.118q0 .086.051.142a.16.16 0 0 0 .126.055.24.24 0 0 0 .132-.043.24.24 0 0 0 .09-.109.8.8 0 0 0 .026-.229zM48.396 39.422h-.316v2h.316zM48.952 40.412l-.284-.064a.55.55 0 0 1 .17-.315.56.56 0 0 1 .349-.096c.13 0 .233.02.3.056q.105.06.15.151c.03.063.048.184.048.352l-.005.45c0 .122.008.218.015.279q.018.094.056.194h-.309l-.041-.156a.6.6 0 0 1-.174.145.43.43 0 0 1-.195.048.37.37 0 0 1-.284-.117.44.44 0 0 1-.111-.311.5.5 0 0 1 .044-.217.4.4 0 0 1 .127-.144.8.8 0 0 1 .264-.098c.144-.031.247-.066.302-.092a.5.5 0 0 0-.015-.161.14.14 0 0 0-.063-.064.3.3 0 0 0-.129-.023c-.056 0-.1.01-.134.038a.3.3 0 0 0-.08.145m.42.313c-.037.017-.1.033-.184.057a.45.45 0 0 0-.194.087.16.16 0 0 0-.043.118q-.001.086.05.142a.15.15 0 0 0 .124.055.23.23 0 0 0 .132-.043.25.25 0 0 0 .091-.109.7.7 0 0 0 .025-.229zM49.848 39.973h.334l.286 1.03.28-1.03h.323l-.419 1.398-.08.27a.9.9 0 0 1-.108.222.3.3 0 0 1-.134.109.4.4 0 0 1-.2.041.8.8 0 0 1-.178-.024l-.03-.3q.077.015.134.016.091 0 .146-.06a.43.43 0 0 0 .099-.216zM51.162 41.012l.316-.058q.04.229.256.229a.3.3 0 0 0 .17-.043.14.14 0 0 0 .055-.116.12.12 0 0 0-.023-.075.3.3 0 0 0-.104-.048q-.388-.101-.493-.195a.4.4 0 0 1-.13-.32q-.001-.203.125-.324c.086-.083.212-.12.375-.12.154 0 .275.027.356.09.08.058.14.156.17.29l-.294.069c-.03-.12-.103-.174-.228-.174a.33.33 0 0 0-.166.032.1.1 0 0 0-.048.087c0 .036.015.056.047.079q.044.037.279.099c.176.05.293.11.36.18a.4.4 0 0 1 .09.282.44.44 0 0 1-.142.343.56.56 0 0 1-.399.14.6.6 0 0 1-.38-.116.56.56 0 0 1-.192-.332M52.555 39.422h.315v.353h-.315zm0 .55h.315v1.45h-.315zM53.428 40.412l-.286-.064a.54.54 0 0 1 .17-.315q.12-.096.346-.096.2.001.305.056c.067.04.12.09.15.151.03.063.045.184.045.352l-.002.45c0 .122.005.218.014.279q.015.094.056.194h-.31l-.041-.156a.6.6 0 0 1-.174.145.43.43 0 0 1-.195.048.38.38 0 0 1-.288-.117.43.43 0 0 1-.11-.311q.002-.123.043-.217a.4.4 0 0 1 .13-.144.8.8 0 0 1 .263-.098c.145-.031.248-.066.306-.092a.6.6 0 0 0-.017-.161.16.16 0 0 0-.062-.064.3.3 0 0 0-.13-.023c-.06 0-.102.01-.135.038q-.05.041-.078.145m.422.313c-.044.017-.104.033-.187.057a.44.44 0 0 0-.195.087q-.043.044-.042.118-.001.086.047.142a.16.16 0 0 0 .126.055c.043 0 .09-.014.132-.043a.24.24 0 0 0 .09-.109.7.7 0 0 0 .029-.229z"></path></svg>