<svg xmlns="http://www.w3.org/2000/svg" height="60" viewBox="0 0 150 150">
  <path fill="#333" d="M91 114.7c-21.9 6.6-36-.5-45.7-10.4-4.6-4.6-9.4-8.6-9.4-8.6s5.9-1 11-1.7h.1c-1.1-2.5-3.4-6.8-4.2-8.7-2.1-5.3-4.7-10.1-4.7-10.1a393 393 0 0 0 13.6.5c.6 0 1.2.1 1.8.1-3.5-8.6-4.8-17.2-5-24.8-.3-9.9 0-18.4 0-18.4L64 41.9c6.7 4 13.5 9.4 19.2 16.9.3-.7.6-1.4.9-2 3.3-6.7 6.4-12.2 6.4-12.2s1.9 3.6 6 9.8c1.4 2.2 3.4 4.6 5.1 8.1 4.1-3.9 7.6-7.9 7.6-7.9a116 116 0 0 0 2.8 11.7c3.6 11.9 3.7 28.7-14.7 44.7.1.1-2.1 2.4-6.3 3.7"></path>
  <path fill="#5e5f5e" d="M93.6 109.9C59.8 95.1 52.8 72.1 52.4 54.7c-.2-8.4 0-15.5 0-15.5l13.1 7.9c14.9 8.9 31.1 27 28.1 62.8"></path>
  <path fill="#424242" d="M93.6 109.9C76.8 88.5 79.7 72.5 85.5 61c2.8-5.5 5.4-10.1 5.4-10.1s3 4.8 6.3 9.5c6.9 9.9 10.9 27.3-3.6 49.5"></path>
  <path fill="#3a3a3a" d="M93.6 109.9C84.3 84.6 67.9 79.7 54.9 79c-6.1-.3-11.3-.8-11.3-.8s1.7 4.8 4.6 10.1c6 11.2 19.2 22.9 45.4 21.6"></path>
  <path fill="#4f4f4f" d="M93.6 109.9c-8.2-21-.5-34.2 6.8-41.9 3.5-3.7 7.5-7.1 7.5-7.1s.6 4.1 1.9 9.1c2.5 10.3.6 25.8-16.2 39.9"></path>
  <path fill="#494949" d="M100.9 67.5c-.2.2-.4.4-.5.6-7.3 7.7-15 20.9-6.8 41.9 11.5-17.7 11.3-32.3 7.3-42.5"></path>
  <path fill="#565656" d="M83.9 64.5c-4.6 11.2-5.5 26.1 9.7 45.5 1.7-20.4-2.8-35.1-9.7-45.5"></path>
  <path fill="#3f3f3f" d="M58.3 79.3c5.6 11.1 16.1 22.2 35.3 30.6-8.6-23.1-23-29.2-35.3-30.6"></path>
  <path fill="#4d4e4e" d="M93.6 109.9c-21.4 9-34.7 1.9-42.8-5.4-3.9-3.5-7.1-6.7-7.1-6.7l9.2-2.6c10.5-2.9 27.1-.4 40.7 14.7"></path>
  <path fill="#515151" d="M93.6 109.9C80 94.8 63.4 92.3 52.9 95.3c7.3 8.5 19.9 15.7 40.7 14.6"></path>
</svg>
