<svg xmlns="http://www.w3.org/2000/svg" height="60" viewBox="0 0 150 150">
  <linearGradient id="akpk_svg__a" x1="15.844" x2="29.518" y1="92.401" y2="92.401" gradientUnits="userSpaceOnUse">
    <stop offset="0" stop-color="#656565"></stop>
    <stop offset="0.068" stop-color="#626262"></stop>
    <stop offset="0.574" stop-color="#545454"></stop>
    <stop offset="1" stop-color="#4F4F4F"></stop>
  </linearGradient>
  <path fill="url(#akpk_svg__a)" d="M29.5 103v-8.4s-9.7-5.8-12.4-12.8l-1.3 5.3c0 .1 1.7 9.8 13.7 15.9"></path>
  <linearGradient id="akpk_svg__b" x1="15.682" x2="29.518" y1="79.842" y2="79.842" gradientUnits="userSpaceOnUse">
    <stop offset="0" stop-color="#7A7A7A"></stop>
    <stop offset="0.006" stop-color="#7A7A7A"></stop>
    <stop offset="0.271" stop-color="#5B5B5B"></stop>
    <stop offset="0.529" stop-color="#454545"></stop>
    <stop offset="0.776" stop-color="#383838"></stop>
    <stop offset="1" stop-color="#333"></stop>
  </linearGradient>
  <path fill="url(#akpk_svg__b)" d="m16.7 69.5-.9 3.2-.2 2c1.9 9.9 13.8 15.5 13.8 15.5v-7.4c-9.8-6.9-12.7-13.3-12.7-13.3"></path>
  <path d="M58.1 103.2H64L52.3 75.6h-6l-11.8 27.6h5.9l2.4-5.7h12.8zm-13-10.8 4.2-9.9 4.2 9.9zm43.7 10.8-12-15.4 10.7-12.2h-6.9l-8.3 9.5v-9.5h-5.8v27.6h5.8V90.4l9.6 12.8zm46 0-12-15.4 10.7-12.2h-6.9l-8.3 9.5v-9.5h-5.7v27.6h5.7V90.4l9.6 12.8zM99.4 75.6h-8.7v27.6h5.8V91.3h2.9c6.1 0 9.5-3.5 9.5-7.9s-3.2-7.8-9.5-7.8m0 10.7h-2.9v-5.8h2.9c2.1 0 3.9 1.3 3.9 2.9s-1.8 2.9-3.9 2.9M15.7 74.7s-3-9.7 5.8-18.4c0 0 7-7.4 17.2-9.2 0 0 5.6-1 6.9 1 0 0 2 2.9-5.6 5.9l-4 1.4s-6.6 2.4-11.1 5.9c-3.6 2.7-7.7 6.8-9.2 13.4" style="fill:#494848"></path>
  <path fill="#606060" d="M15.8 87.2s-3.8-11 7.4-20.9c0 0 8.9-8.4 22.1-10.4 0 0 7.2-1.2 8.8 1.2 0 0 2.5 3.3-7.2 6.7l-5.1 1.5s-8.5 2.7-14.3 6.6c-4.4 3.1-9.8 7.8-11.7 15.3"></path>
</svg>
