<svg xmlns="http://www.w3.org/2000/svg" height="60" viewBox="0 0 150 150">
  <path d="m74.7 116.8-.4-.6c-.4-.6-.9-1-1.1-1.1l-30.6-11.2c-2.2-1-2.7-3.3-2.7-3.4V35.7c0-.9.3-1.6.8-2 .7-.6 1.5-.5 1.7-.5h65.3c.2 0 1-.1 1.7.5.5.4.8 1.1.8 2v64.8c0 .1-.5 2.4-2.7 3.4l-31 11.2c-.2.1-.7.7-1.1 1.1zm-31.6-14L73.7 114h.1s.5.3 1 .9c.3-.3.7-.7 1-.9h.1l31.1-11.2c1.5-.7 2-2.2 2-2.5V35.7c0-.5-.1-.9-.4-1.1-.3-.3-.8-.2-.8-.2H42.3s-.5-.1-.8.2c-.2.2-.4.6-.4 1.1v64.6c0 .3.5 1.8 2 2.5m31.6-58.7C60.5 44.1 49 55.6 49 69.8s11.5 25.7 25.7 25.7 25.7-11.5 25.7-25.7S89 44.1 74.7 44.1m7.7 6.4c-.2.4-.3.9-.3 1.4 0 1.8 1.4 3.2 3.2 3.2.7 0 1.4-.2 1.9-.6-.5 1.1-1.6 1.8-2.9 1.8-1.8 0-3.2-1.4-3.2-3.2a3.17 3.17 0 0 1 1.3-2.6m-8-1.2c1.8 0 3.2 1.4 3.2 3.2s-1.4 3.2-3.2 3.2-3.2-1.4-3.2-3.2 1.4-3.2 3.2-3.2m18.3 15.8c-.7 1-2.7 2-2.7 2 .4.4.9 1.1.9 2.2 0 1.2-2.5 4.2-2.5 4.2-.2.4-.1 1.3-.1 1.3l2.7 9.5c.1.3.2.4.2.4.4.3.3.6.3.6l-.3.2h-1.4c-.2-.3 0-.5 0-.5.2-.1-.1-.5-.1-.5l-1.8-4.9c-1.2-3.4-1.8-4.3-1.8-4.3-.2-.4-.5-.1-.5-.1l-.4.5c-.3.3-1.7 3.5-1.7 3.5l-2.3 5.5c-.4.9-.7.9-.7.9h-1.1c-.3 0-.3-.2-.3-.2-.1-.4.4-.5.4-.5.4-.1.8-1.1.8-1.1l3.2-9.7c.3-.8 0-1.4 0-1.4-.5-.8-2.2-.5-2.2-.5L75 73.9c-3.1.8-5.4-.2-5.4-.2v.3l3.7 10.6c.4.2.3.6.3.6h-1.8c-.2-.2.1-.5.1-.5.3-.1 0-.4 0-.4l-3.8-9.8c-.4-.7-.7.2-.7.2-2.2 5.3-3.8 8.3-3.8 8.3-.3.4-.3.8-.3.8.2 1-.2 1.3-.2 1.3h-1.9c0-.6.6-1 .6-1 .5-.5 1.1-2 1.1-2 1.1-3.2 2.6-8 3-10.2s.2-3.9-.2-6.2c-.5-2.3-1.6-5.2-1.6-5.2-.5-1.4-1.2-1.9-1.2-1.9-3.2.3-2.4-.6-2.4-.6.1-.3-.1-.2-.1-.2-1.1-.1-.6-.6-.6-.6.8-1.1 2.5-1.7 2.5-1.7.2-.2 0-.4 0-.4-.2-.3-.1-.7-.1-.7.1-1.2 1.1-1.7 1.1-1.7-.3 1 .2 1.8.2 1.9s.8.9 1.7.3c.9-.7.4-2.4.4-2.4.3.2 1 .9 1 1.6s-.6 1.5-.6 1.5c-.1.4.1.7.1.7.5.5 2.6 7 2.6 7C68.9 64.7 70 66 70 66c1.2 1.1 4 .6 4 .6l12.5-1.1c2.2-.2 2.8.7 2.8.7s2.5-1.3 2.8-2.4-.6-1.7-1.5-1.9-4 1-4 1l-7.5 2.2c-2.5.9-4.7.1-5 0s-.5-.4-.4-.7c.1-.4.7-.4 1-.3s.8.6 1.8.5c1 0 3.8-.8 3.8-.8l4.9-1.5c.5-.2 3.5-1.2 4.9-1.5 1.4-.4 3.2.9 3.3 2.2 0 1.3-.7 2.1-.7 2.1" style="fill:#777"></path>
</svg>
