<svg xmlns="http://www.w3.org/2000/svg" fill="none" viewBox="0 0 24 24">
  <g clip-path="url(#social-linkedin_svg__a)">
    <path fill="#686868" d="M22.228 0H1.772C.793 0 0 .793 0 1.772v20.456C0 23.207.793 24 1.772 24h20.456c.979 0 1.772-.793 1.772-1.772V1.772C24 .793 23.207 0 22.228 0M7.153 20.447H3.545V8.983h3.608v11.464M5.35 7.395c-1.148 0-2.08-.875-2.08-2.072 0-1.196.932-2.071 2.08-2.071s2.08.875 2.08 2.071-.932 2.072-2.08 2.072m15.105 13.06h-3.608v-6.26c0-1.847-.785-2.417-1.799-2.417-1.07 0-2.12.805-2.12 2.464v6.215H9.32V8.992h3.47v1.588h.047c.348-.705 1.568-1.91 3.43-1.91 2.013 0 4.188 1.195 4.188 4.695z"></path>
  </g>
  <defs>
    <clipPath id="social-linkedin_svg__a">
      <path fill="#fff" d="M0 0h24v24H0z"></path>
    </clipPath>
  </defs>
</svg>
