<svg xmlns="http://www.w3.org/2000/svg" width="60" height="60" viewBox="0 0 150 150">
  <style>.malaysia-takaful_svg__mta{fill:#515252}</style>
  <path d="m104.4 98 .2-.1.1-.1.1-.1v-5l-2.3 5.3h-.3l-2.3-5.2v5l.1.1h.3v.1H99v-.1h.3l.1-.1v-5.6l-.1-.1-.1-.1H99v-.1h1.4l2.2 4.9 2.1-4.9h1.4v.1h-.2l-.1.1-.1.1v5.4l.1.1.1.1h.2v.2" class="malaysia-takaful_svg__mta"></path>
  <path d="M109.7 97.8c-.1.1-.3.2-.4.2s-.2.1-.3 0l-.2-.2c0-.1-.1-.3-.1-.5-.2.2-.4.4-.6.5s-.5.2-.8.2c-.2 0-.3 0-.5-.1-.1 0-.3-.1-.4-.2s-.2-.2-.3-.4c-.1-.1-.1-.3-.1-.5s0-.3.1-.5c.1-.1.1-.3.3-.3.1-.1.2-.2.4-.3.1-.1.3-.1.4-.2.3-.1.5-.2.7-.2s.4-.1.7-.2v-.4c0-.2 0-.3-.1-.4l-.3-.3c-.1-.1-.2-.1-.4-.2-.1 0-.3-.1-.4-.1h-.2l-.2.1-.2.1-.2.1-.1-.1.2-.2.2-.2c.2-.1.3-.2.5-.3s.3-.1.5-.1c.5 0 .8.1 1 .3s.4.6.4 1v2.5l.1.2.1.1h.1l.1-.1m-1.6-1.4c-.1 0-.3.1-.4.1-.1.1-.3.1-.4.2l-.3.3c-.1.1-.1.3-.1.4 0 .2 0 .4.1.5s.2.2.3.2.3.1.4 0c.2 0 .3-.1.4-.2l.3-.3c.1-.1.1-.3.1-.5v-1zM110.2 98c.2-.1.3-.1.3-.1.1 0 .1-.1.1-.3v-5.5l-.1-.1h-.30000000000000004v-.2l.2-.1.3-.1.3-.1h.2v6c0 .1 0 .2.1.3.1 0 .2.1.3.1v.1" class="malaysia-takaful_svg__mta"></path>
  <path d="M115.2 97.8c-.2.1-.3.2-.4.2s-.2.1-.3 0l-.2-.2c0-.1-.1-.3-.1-.5-.2.2-.4.4-.6.5s-.5.2-.8.2c-.2 0-.3 0-.5-.1-.1 0-.3-.1-.4-.2s-.2-.2-.3-.4c-.1-.1-.1-.3-.1-.5s0-.3.1-.5c.1-.1.1-.3.3-.3.1-.1.2-.2.4-.3.1-.1.3-.1.4-.2.3-.1.5-.2.7-.2s.4-.1.7-.2v-.4c0-.2 0-.3-.1-.4l-.3-.3c-.1-.1-.2-.1-.4-.2-.1 0-.3-.1-.4-.1h-.2l-.3.1-.2.1-.2.1-.1-.1.2-.2.2-.2c.2-.1.3-.2.5-.3s.3-.1.5-.1c.5 0 .8.1 1 .3s.4.6.4 1v2.5l.1.2.1.1h.1l.1-.1m-1.4-1.4c-.1 0-.3.1-.4.1-.2.1-.3.1-.4.2l-.3.3c-.1.1-.1.3-.1.4 0 .2 0 .4.1.5s.2.2.3.2.3.1.4 0c.2 0 .3-.1.4-.2s.3-.2.3-.3c.1-.1.1-.3.1-.5v-1z" class="malaysia-takaful_svg__mta"></path>
  <path d="m118.8 93.8-.1.1-1.7 4.5c-.1.1-.1.3-.2.5s-.2.3-.3.5c-.1.1-.2.3-.4.4-.1.1-.3.1-.5.1h-.2l-.2-.1-.2-.1-.1-.1v-.1l.1-.1.1-.1.1-.1.2.1.1.2.1.2.1.1.2-.1c.1-.1.1-.2.2-.3s.1-.3.2-.4.1-.3.1-.4.1-.3.1-.4l.1-.2-1.6-3.9-.1-.1h-.2v-.1h1.3v.1h-.2l-.1.1v.1l1.2 3L118 94v-.1h-.30000000000000004v-.1h.9v.1zM119 98.1v-1.2h.1c0 .2.1.3.2.5.1.1.2.2.4.3.1.1.3.1.5.1s.3 0 .4-.1.2-.1.3-.2.1-.2.1-.4-.1-.3-.2-.4-.2-.2-.4-.3c-.1-.1-.3-.2-.5-.3s-.3-.2-.5-.3-.3-.2-.4-.4c-.1-.1-.2-.3-.2-.6 0-.2 0-.3.1-.5.1-.1.2-.3.3-.4s.3-.2.4-.2c.2-.1.3-.1.5-.1s.3 0 .5.1.3.1.5.1l.1-.1v1h-.1c-.1-.3-.3-.4-.5-.5s-.4-.2-.6-.2-.4.1-.5.2-.2.3-.2.5 0 .3.2.4c.1.1.2.2.4.3s.3.2.5.3.4.2.5.3c.2.1.3.3.4.4.1.2.2.3.2.6 0 .4-.1.7-.4.9-.1.1-.3.2-.5.3-.2 0-.4.1-.5.1h-.4c-.1 0-.3-.1-.4-.1h-.2l-.1.1zM122 98c.2-.1.3-.1.3-.1.1 0 .1-.1.1-.3v-3.4000000000000004l-.1-.1h-.30000000000000004l.9-.3h.2V98s.1.1.2.1V98m-.3-5.6-.3.1-.3-.1c-.1-.1-.1-.2-.1-.3s0-.2.1-.3l.3-.1.3.1c.1.1.1.2.1.3s-.1.2-.1.3M127.1 97.8c-.2.1-.3.2-.4.2s-.2.1-.3 0l-.2-.2c0-.1-.1-.3-.1-.5-.2.2-.4.4-.6.5s-.5.2-.8.2c-.2 0-.3 0-.5-.1-.1 0-.3-.1-.4-.2s-.2-.2-.3-.4c-.1-.1-.1-.3-.1-.5s0-.3.1-.5c.1-.1.2-.3.3-.3.1-.1.2-.2.4-.3.1-.1.3-.1.4-.2.3-.1.5-.2.7-.2s.4-.1.7-.2v-.4c0-.2 0-.3-.1-.4l-.3-.3c-.1-.1-.2-.1-.4-.2-.1 0-.3-.1-.4-.1h-.2l-.3.1-.2.1-.2.1-.1-.1.2-.2.2-.2c.2-.1.3-.2.5-.3s.3-.1.5-.1c.5 0 .8.1 1 .3s.4.6.4 1v2.5l.1.2.1.1h.1l.1-.1m-1.5-1.4c-.1 0-.3.1-.4.1-.2.1-.3.1-.4.2l-.3.3c-.1.1-.1.3-.1.4 0 .2 0 .4.1.5s.2.2.3.2.3.1.4 0c.2 0 .3-.1.4-.2s.3-.2.3-.3c.1-.1.1-.3.1-.5v-1zM130.2 98c.2-.1.2-.1.3-.1v-3.0999999999999996c0-.1-.1-.2-.1-.3l-.3-.2c-.1-.1-.2-.1-.4-.1-.3 0-.5.1-.6.2-.2.1-.3.3-.4.5l-.1.1v2.8c0 .1.1.1.2.1v.1h-1.1v-.1c.1 0 .2 0 .3-.1V94l-.1-.1h-.30000000000000004v-.1l.8-.3h.2v.8l.6-.6c.2-.1.5-.2.8-.2.2 0 .4 0 .6.1s.3.2.4.3.2.3.2.5c.1.2.1.4.1.6v2.6l.2.1v.3M105.5 101.5c-.1-.3-.2-.6-.3-.7s-.4-.2-.7-.2h-1.6v7.3l.1.2.2.1h.3v.1h-2.4v-.1h.3l.2-.1.1-.2v-7.3h-1.6c-.3 0-.6.1-.7.2-.2.1-.3.3-.3.7H99l.1-1.5h6.5v1.5" class="malaysia-takaful_svg__mta"></path>
  <path d="m108.6 108.1-.6.3c-.2.1-.3.1-.4 0q-.15 0-.3-.3c-.1-.2-.1-.4-.1-.7-.2.3-.5.5-.8.7s-.7.3-1.1.3c-.2 0-.4 0-.6-.1s-.4-.2-.5-.3c-.2-.1-.3-.3-.4-.5s-.1-.4-.1-.6c0-.3 0-.5.1-.7s.2-.3.4-.5c.1-.1.3-.3.5-.4l.6-.3c.4-.2.7-.3 1-.3.3-.1.6-.1.9-.2v-.5c0-.2 0-.4-.1-.5s-.2-.3-.3-.4-.3-.2-.5-.2c-.2-.1-.4-.1-.5-.1h-.3c-.1 0-.2.1-.3.1-.1.1-.2.1-.3.2l-.3.2-.1-.1.2-.3.3-.2c.2-.2.4-.3.6-.4s.5-.1.7-.1c.6 0 1.1.2 1.4.5s.5.8.5 1.4v3.5l.1.2.1.1h.2l.2-.1m-2.4-2.5c-.2 0-.4.1-.6.2l-.6.3c-.2.1-.3.2-.4.4s-.2.4-.2.6c0 .3.1.5.2.7s.3.3.5.3q.3.15.6 0c.2 0 .4-.1.6-.2s.3-.3.5-.4c.1-.2.2-.4.2-.6v-1.4zM113 108.4l.1-.2-.1-.1-2.4-2.9v3c0 .1.1.1.3.1v.1h-1.8v-.1c.2 0 .4 0 .4-.1.1-.1.1-.2.1-.4v-7.7l-.1-.1h-.5v-.1c.1 0 .2 0 .3-.1.1 0 .3-.1.4-.1.2 0 .3-.1.4-.1h.3v5.3l2.1-1.9.2-.2.1-.1-.1-.1h-.3v-.1h1.8v.1c-.2 0-.4 0-.6.1-.1.1-.3.2-.5.4l-2 1.8 2.5 2.9.4.4c.1.1.3.2.5.2v.1M119.4 108.1l-.6.3c-.2.1-.3.1-.4 0q-.15 0-.3-.3c-.1-.2-.1-.4-.1-.7-.2.3-.5.5-.8.7s-.7.3-1.1.3c-.2 0-.4 0-.6-.1s-.4-.2-.5-.3-.3-.3-.4-.5-.1-.4-.1-.6c0-.3 0-.5.1-.7s.2-.3.4-.5c.2-.1.3-.3.5-.4l.6-.3c.4-.2.7-.3 1-.3.3-.1.6-.1.9-.2v-.5c0-.2 0-.4-.1-.5s-.2-.3-.3-.4-.3-.2-.5-.2c-.2-.1-.4-.1-.6-.1h-.3c-.1 0-.2.1-.3.1l-.3.2-.3.2-.1-.1.2-.3.3-.2c.2-.2.4-.3.7-.4.2-.1.5-.1.7-.1.6 0 1.1.2 1.4.5s.5.8.5 1.4v3.5l.1.2.1.1h.2l.2-.1m-2.4-2.5c-.2 0-.4.1-.6.2l-.6.3c-.2.1-.3.2-.4.4s-.2.4-.2.6c0 .3.1.5.2.7s.3.3.5.3q.3.15.6 0c.2 0 .4-.1.6-.2s.3-.3.5-.4c.1-.2.2-.4.2-.6v-1.4zM123 100.3l-.1-.2-.1-.2-.2-.2-.2-.1c-.2 0-.3.1-.4.2s-.2.2-.2.4c-.1.2-.1.3-.1.5v1.8h1.5v.3h-1.5v5.3l.1.1.1.1h.3v.1H120v-.1h.3l.2-.1.1-.2v-5.3h-1.1v-.3h1.1v-.6c0-.3 0-.6.1-.9s.2-.5.3-.7c.2-.2.4-.4.6-.5.3-.1.6-.2.9-.2h.3l.3.1.3.1.1.2-.1.2-.2.2zM127.8 108.4h-.1v-1.1c-.3.4-.5.7-.8.9s-.7.3-1.1.3c-.6 0-1-.2-1.3-.5-.3-.4-.4-.8-.4-1.4V103c0-.2 0-.3-.1-.4-.1 0-.2-.1-.3-.1v-.1h1.4v3.9c0 .3.1.6.2.8s.3.4.5.5.4.1.7.1c.2 0 .4-.1.7-.2.2-.1.4-.3.5-.5s.2-.5.2-.8V103c0-.2 0-.3-.1-.4-.1 0-.2-.1-.4-.1v-.1h1.4v5.2c0 .2 0 .3.1.3h.3v.1M129.5 108.4c.2-.1.4-.1.4-.2.1-.1.1-.2.1-.4V100h-.5v-.3c.1 0 .2 0 .3-.1.1 0 .3-.1.4-.1.2 0 .3-.1.4-.1h.3v8.3c0 .2.1.3.2.4s.2.1.4.1v.1M102.6 115.8l.3-.1q.15 0 0-.3l-.5-1.2H100l-.4 1.1c-.1.1-.1.2-.1.3s.1.1.3.1v.1h-1.1v-.1l.2-.1.1-.1.1-.1.1-.2 2-4.8h.4l2.1 5 .3.3v.1m-2.7-4.5-1 2.5h2.1zM104.3 115.9v-1h.1c0 .2.1.3.2.4l.3.2c.1.1.3.1.4.1s.3 0 .4-.1l.3-.2c.1-.1.1-.2.1-.3 0-.2 0-.3-.1-.4l-.3-.3c-.1-.1-.3-.2-.4-.2-.2-.1-.3-.2-.4-.3l-.3-.3c-.1-.1-.1-.3-.1-.5s0-.3.1-.4.1-.2.3-.3c.1-.1.2-.1.4-.2.1-.1.3-.1.4-.1s.3 0 .4.1.3.1.4.1l.1-.1v.9c-.1-.2-.2-.4-.4-.5s-.4-.1-.5-.1c-.2 0-.3.1-.4.2s-.2.2-.2.4c0 .1 0 .3.1.4l.3.3c.1.1.3.2.4.2.2.1.3.2.5.3.1.1.3.2.3.4.1.1.1.3.1.5 0 .3-.1.6-.4.8-.1.1-.3.2-.4.2-.2 0-.3.1-.5.1h-.4c-.1 0-.2 0-.4-.1h-.2l-.1.1zM107.1 115.9v-1h.1c0 .2.1.3.2.4s.2.2.3.2c.1.1.3.1.4.1s.3 0 .4-.1l.3-.2c.1-.1.1-.2.1-.3 0-.2 0-.3-.1-.4l-.3-.3c-.1-.1-.3-.2-.4-.2-.2-.1-.3-.2-.4-.3l-.3-.3c-.1-.1-.1-.3-.1-.5s0-.3.1-.4.1-.2.3-.3c.1-.1.2-.1.4-.2.1-.1.3-.1.4-.1.2 0 .3 0 .4.1s.3.1.4.1l.1-.1v.9h-.1c-.1-.2-.2-.4-.4-.5s-.4-.1-.5-.1c-.2 0-.3.1-.5.2-.1.1-.2.2-.2.4 0 .1 0 .3.1.4l.3.3c.1.1.3.2.5.2.2.1.3.2.5.3.1.1.3.2.4.4.1.1.1.3.1.5 0 .3-.1.6-.4.8-.1.1-.3.2-.4.2-.2 0-.3.1-.5.1h-.4c-.1 0-.2 0-.4-.1h-.2l-.1.1zM113.1 115c-.2.3-.4.5-.7.6-.3.2-.5.2-.8.2s-.6-.1-.9-.2-.5-.4-.7-.6c-.2-.3-.3-.6-.3-1.1 0-.4.1-.8.3-1.1s.4-.5.7-.7c.3-.1.5-.2.9-.2.3 0 .6.1.9.2s.5.4.7.7.3.7.3 1.1c-.1.5-.2.8-.4 1.1m-.5-2c-.1-.2-.3-.4-.4-.6-.2-.1-.4-.2-.6-.2s-.4 0-.6.2c-.2.1-.3.3-.4.5-.1.3-.2.6-.2.9 0 .4.1.7.2.9s.3.4.4.5c.2.1.4.2.6.2s.4 0 .6-.2c.2-.1.3-.3.4-.5s.2-.5.2-.9c0-.2-.1-.5-.2-.8M115.2 115.9c-.3 0-.5 0-.7-.1s-.4-.2-.5-.4l-.3-.6c-.1-.2-.1-.5-.1-.7 0-.3 0-.5.1-.8.1-.2.2-.5.4-.7.1-.1.3-.2.4-.3.2-.1.3-.2.5-.2h.5c.2 0 .4.1.5.2l.2.1.1.2v.2l-.1.1h-.1l-.1-.2-.2-.2c-.1-.1-.2-.1-.4-.1s-.4 0-.6.1-.3.2-.4.3-.2.3-.2.5c-.1.2-.1.4-.1.6s0 .4.1.6.1.4.3.5c.1.2.2.3.4.4s.3.1.6.1h.3l.3-.1.3-.2.2-.2.1.1c-.5.5-.9.8-1.5.8" class="malaysia-takaful_svg__mta"></path>
  <path d="M116.6 115.8c.1-.1.2-.1.3-.1 0 0 .1-.1.1-.3v-3l-.1-.1h-.30000000000000004l.8-.3h.1v3.6s.1.1.2.1v.1m-.3-4.9-.2.1-.2-.1c-.1-.1-.1-.1-.1-.3 0-.1 0-.2.1-.3l.2-.1.2.1c.1.1.1.1.1.3s-.1.3-.1.3M121 115.6c-.1.1-.3.1-.4.2h-.3l-.2-.2c0-.1-.1-.2-.1-.4l-.5.5c-.2.1-.4.2-.7.2-.1 0-.3 0-.4-.1-.1 0-.2-.1-.3-.2s-.2-.2-.2-.3-.1-.3-.1-.4c0-.2 0-.3.1-.4s.1-.2.2-.3.2-.2.3-.2c.1-.1.3-.1.4-.2.2-.1.4-.2.6-.2s.4-.1.6-.1v-.5c0-.1 0-.2-.1-.3l-.2-.2c-.1-.1-.2-.1-.3-.1h-.5l-.2.1-.2.1-.2.1h-.1l.2-.2.2-.1c.1-.1.3-.2.4-.2s.3-.1.5-.1q.6 0 .9.3t.3.9v2.4000000000000004l.1.1zv-.1m-1.4-1.7c-.1 0-.2.1-.4.1-.1 0-.3.1-.4.2l-.3.3c-.1.1-.1.2-.1.4s0 .3.1.4.2.2.3.2.2.1.4 0c.1 0 .3-.1.4-.1l.3-.3c.1-.1.1-.2.1-.4v-.9zM122.8 115.7l-.2.1-.2.1h-.2c-.2 0-.3 0-.4-.1l-.2-.2c-.1-.1-.1-.2-.1-.3v-2.9h-.6v-.2h.6c.1-.1.2-.3.2-.5s.1-.3.1-.5h.30000000000000004v1.1h.9v.2h-.9v2.5c0 .5.1.8.7.7l.2-.1.1.1zM123.1 115.8c.1-.1.2-.1.3-.1 0 0 .1-.1.1-.3v-3l-.1-.1h-.30000000000000004l.8-.3h.1v3.6s.1.1.2.1v.1m-.2-4.9-.2.1-.2-.1c-.1-.1-.1-.1-.1-.3 0-.1 0-.2.1-.3l.2-.1.2.1c.1.1.1.1.1.3s-.1.3-.1.3M127.7 115c-.2.3-.4.5-.7.6-.3.2-.6.2-.9.2s-.6-.1-.9-.2-.5-.4-.7-.6c-.2-.3-.3-.6-.3-1.1 0-.4.1-.8.3-1.1s.4-.5.7-.7c.3-.1.5-.2.9-.2.3 0 .6.1.9.2s.5.4.7.7.3.7.3 1.1c0 .5-.1.8-.3 1.1m-.5-2c-.1-.2-.3-.4-.4-.6-.2-.1-.4-.2-.6-.2s-.4 0-.6.2c-.2.1-.3.3-.4.5-.1.3-.2.6-.2.9 0 .4.1.7.2.9s.3.4.4.5c.2.1.4.2.6.2s.4 0 .6-.2c.2-.1.3-.3.4-.5s.2-.5.1-.9c.1-.2 0-.5-.1-.8M130.6 115.8c.1-.1.2-.1.2-.1V113l-.1-.3-.2-.2c-.1-.1-.2-.1-.3-.1-.2 0-.4.1-.6.2s-.3.3-.3.5v2.5000000000000004l.2.1v.1h-1v-.1c.1 0 .2 0 .2-.1v-3.5h-.2v-.1l.7-.2h.2v.7c.1-.2.3-.4.5-.5s.4-.2.7-.2c.2 0 .4 0 .5.1s.3.2.3.3c.1.1.1.3.2.4 0 .2.1.3.1.5v2.3000000000000003l.2.1v.1M37.2 50.6c-.3 1.3-.5 2.7-.8 4s-.5 2.7-.8 4l-.3 1.7c2.6 2.2 5.6 4.2 8.6 5.8-.2-.1 1.1-5.3 1.2-5.7s1.4-5.5 1-5.7c-3-1.7-6-3.6-8.6-5.8z" class="malaysia-takaful_svg__mta"></path>
  <path d="M45.9 51.7c-.1.5-1.4 5.4-1 5.7 3 2.3 6.3 4.3 9.7 6.1-.2-.1 1.1-5.3 1.2-5.7s1.3-5.5 1-5.7C53.4 50.3 50 48.3 47 46c.3.2-1 5.2-1.1 5.7" class="malaysia-takaful_svg__mta"></path>
  <path d="M118.3 71.9c1.8.2 3.5 1 4.8 2.2-1.7-.6-3.4-1.3-4.8-2.2m2.9-10.2c-.1.2-.2.4-.2.5-.2.4-.4.8-.6 1.1.2-.5.5-1 .8-1.6M39.8 34.9C31 47 22.4 60.5 19.2 75.3c-3.5 16 4.7 30.6 20.4 35.4 13.3 4.1 27.2.4 39.2-6 11.8-6.3 21.1-16.2 30.9-25.4 1.9-.5 3.5-1.7 4.8-3.2 3 2.6 7.4 3.4 11.1 4.4.7.2 2.8-4.2 2.9-4.9.6-5.2-4.1-9.1-8.6-8.8 1.3-2.6 2.4-5.3 3.4-8 .5-.8.9-1.5 1-2.3 0-.2.1-.4.1-.6 1-10.3-12.8-.2-16.3 2.4-9.6 7.2-17.8 15.9-27.4 23.1-10.7 7.9-25 12.1-38 8.1C36 87.6 31.8 82.4 30 76c-1-3.7-1.1-7.7-.7-11.5.2-2 .6-3.9 1.1-5.8.2-.8.4-1.5.7-2.3.3-1 2.1-3.9 0-.6 1.6-2.4 2.5-5.3 4-7.7-7.5 11.8-14.1 27.2-7 40.7 7.4 14 27.9 11.4 39.5 5.7 12.6-6.2 23.5-18.2 34.3-26.8 3.5-2.8 19.9-15.5 18.3-3.5-.3.7-.5 1.5-.8 2.2-.1.2-.1.4-.2.5-1.5.2-2.9.9-4.1 2.1-.8.8-1.3 1.9-1.9 2.8-.2 0-.3.1-.5.1-.3 0-.9 1.2-1.3 2.2-7.4 7-14.7 14.2-23.2 20-10.7 7.2-23.8 11.9-36.8 10.6-13.3-1.3-25-9.3-28.1-22.7-3.4-14.9 5.6-30 13.9-41.5 1.2-1.6 2.2-3.5 3.1-5.3.3-.7.4-1.1.3-1.1-.2 0-.4.2-.8.8" class="malaysia-takaful_svg__mta"></path>
</svg>
