<svg xmlns="http://www.w3.org/2000/svg" width="60" height="60" viewBox="0 0 150 150">
  <style>.ofs_svg__st1{fill:#79797a}</style>
  <path d="M61.3 77.2c-3.2 8.6-10.6 14.3-19.6 14.3-9.9 0-19.7-7.9-19.7-17.9s8.5-18 18.6-18c4.9 0 10.1 2.4 14 6-4.3-5.2-11.3-9.3-17.8-9.3-11.3 0-19.5 7.8-21.5 18.1 1.6 5.4 5 9.5 10.6 13.6-5.6-1.6-9.1-4.3-11.1-7.4.6 12.2 10.6 21.8 23.2 21.8 12.5-.1 22.4-9.3 23.3-21.2" class="ofs_svg__st1"></path>
  <path d="M47.6 55.6c1.6 2.7 2.5 5.9 2.3 9.2-.6 12-9.5 19.4-21.2 19.4-1.4 0-1.4.1-2.7-.2 3.3 1.4 5.7 2.2 9.8 2.5 12.5 1 22.8-8.6 22.8-15.7 0-4.9-4.4-11.3-11-15.2" style="fill:#3a3a3a"></path>
  <path d="M98.5 52.1c-1 .9-4 .7-4 .7H75.8c-1.1 0-2.6-.6-2.6-.6H70v1.1h2.5c3.2.5 3.4 2.9 3.4 2.9v36.5c0 .9-.4 5-5.2 4.8v.7H90v-.7h-1.2c-5.2-.3-5.8-4.4-5.9-5V74.8h10.3c3.8 1.3 3.4 5.1 3.4 5.1h.6c0-6 .7-6.4.7-6.4v-3.2h-.6c-.6 2.2-4.1 1.9-4.1 1.9H82.9V55.4h11.6c3.8 1.3 3.4 5.1 3.4 5.1h.6c0-7.9 1.3-7.7 1.3-7.7v-.7zM132.2 61.7c.1-.4.2-.8.2-1.3 0-3.6-4.2-6.5-7.8-6.5-4.8 0-7.8 2.9-7.8 6.5 0 0-.2 3 4.1 6.5s14.2 10.1 14.2 18.6c0 7.5-6.4 13.6-16 13.6-3.6 0-7-1-9.7-2.8v-7.2c.6-.7.8-3.2.8-3.2h.6l.6 2.5c0 4.2 3.9 7.7 8.7 7.7 5.5 0 8.7-3.4 8.7-7.7 0-5-5.7-8.5-12.1-14.1s-6-11.1-6-11.1c0-6.8 5.9-12.4 14.9-12.4 3.1 0 5.8.7 8 1.8v9.1z" class="ofs_svg__st1"></path>
</svg>
