<svg xmlns="http://www.w3.org/2000/svg" xmlns:xlink="http://www.w3.org/1999/xlink" xml:space="preserve" width="60" height="60" viewBox="0 0 150 150">
  <style>.piam_svg__st0{display:none}.piam_svg__st2{display:inline}.piam_svg__st3{fill:#6b6b6b}.piam_svg__st4{fill:#6c6c6c}.piam_svg__st12{fill:#7c7c7c}.piam_svg__st24{fill:#878787}.piam_svg__st25{fill:#848484}.piam_svg__st28{fill:#cbcbcb}.piam_svg__st30{fill:#b9b9ba}.piam_svg__st32{fill:none;stroke:#ec1c24;stroke-width:.25;stroke-miterlimit:10}.piam_svg__st33{fill:#666}.piam_svg__st35{fill:#767676}</style>
  <g id="piam_svg__piam">
    <path d="M89.1 72.5c0-3.2-2.2-5.8-5.7-5.8h-9.1v18.1h4.1v-6.6h5c3.5 0 5.7-2.6 5.7-5.7m-6.8 2.7h-3.9v-5.5h3.9c1.6 0 3 1.1 3 2.7-.1 1.8-1.4 2.8-3 2.8M91.7 66.7h4.1v18.1h-4.1zM135.1 66.7h-3.7l-4.1 12.6-4.4-12.6h-5.800000000000001v18.1h3.9V71.7l4.6 13v.1h3.1l4.6-13v13h3.9V66.7zM111.4 84.8h4.1l-6.9-18.1h-4.2l-6.9 18.1h4.1l1.5-4.1h7zm-7.4-7 2.4-6.8 2.4 6.8z" class="piam_svg__st4"></path>
    <defs>
      <path id="piam_svg__SVGID_1_" d="M12.8 46.9v56.3H67V46.9zm40 38.5c0 1.4-1.1 2.5-2.5 2.5H28.4s.2-1.9.2-2.5V65.1c0-1.4 1.1-2.5 2.5-2.5h19.3c1.4 0 2.5 1.1 2.5 2.5v20.3z"></path>
    </defs>
    <clipPath id="piam_svg__SVGID_2_">
      <use xlink:href="#piam_svg__SVGID_1_" style="overflow:visible"></use>
    </clipPath>
    <linearGradient id="piam_svg__SVGID_3_" x1="14.018" x2="63.16" y1="101.46" y2="50.084" gradientUnits="userSpaceOnUse">
      <stop offset="0" style="stop-color:#c8c8c8"></stop>
      <stop offset="1" style="stop-color:#434343"></stop>
    </linearGradient>
    <path d="M55.8 48.1H24c-5.5 0-9.9 4.5-9.9 9.9v43.9h1.2c.2 0 .3 0 .5-.1h.1c.4-.1.7-.1 1.1-.2 3.7-.8 6.5-2.8 8.4-5.4-6-4.2-9.8-11.2-9.8-19.1 0-12.9 10.1-23.3 22.5-23.3s22.5 10.4 22.5 23.3c0 12.8-9.9 23.2-22.2 23.3.9.2 1.9.3 2.8.3h14.6c5.5 0 9.9-4.5 9.9-9.9V58.1c0-5.5-4.4-10-9.9-10" style="clip-path:url(#piam_svg__SVGID_2_);fill:url(#piam_svg__SVGID_3_)"></path>
    <linearGradient id="piam_svg__SVGID_4_" x1="14.018" x2="63.16" y1="101.46" y2="50.084" gradientUnits="userSpaceOnUse">
      <stop offset="0" style="stop-color:#c8c8c8"></stop>
      <stop offset="1" style="stop-color:#434343"></stop>
    </linearGradient>
    <path d="M55.8 48.1H24c-5.5 0-9.9 4.5-9.9 9.9v43.9h1.2c.2 0 .3 0 .5-.1h.1c.4-.1.7-.1 1.1-.2 6.8-1.5 10.5-7 11.4-13.5.2 6.9 6 12.5 12.9 12.5h14.6c5.5 0 9.9-4.5 9.9-9.9V58.1c-.1-5.5-4.5-10-10-10" style="clip-path:url(#piam_svg__SVGID_2_);fill:url(#piam_svg__SVGID_4_)"></path>
    <linearGradient id="piam_svg__SVGID_5_" x1="19.396" x2="70.803" y1="92.553" y2="29.283" gradientUnits="userSpaceOnUse">
      <stop offset="0" style="stop-color:#dedede"></stop>
      <stop offset="0.143" style="stop-color:#d8d8d8"></stop>
      <stop offset="0.339" style="stop-color:#c6c6c6"></stop>
      <stop offset="0.566" style="stop-color:#a9a9a9"></stop>
      <stop offset="0.814" style="stop-color:#818181"></stop>
      <stop offset="1" style="stop-color:#5e5e5e"></stop>
    </linearGradient>
    <path d="M28.3 88.2s-.9 12.9-14.2 13.8V58c0-5.5 4.5-9.9 9.9-9.9h32.6c5.7 5.4 9.3 13.2 9.3 21.6 0 16.2-13.3 29.4-29.7 29.4h-1.1c-4-2.1-6.7-6.2-6.8-10.9" style="clip-path:url(#piam_svg__SVGID_2_);fill:url(#piam_svg__SVGID_5_)"></path>
    <linearGradient id="piam_svg__SVGID_6_" x1="53.474" x2="36.597" y1="86.478" y2="51.978" gradientUnits="userSpaceOnUse">
      <stop offset="0" style="stop-color:#c8c8c8"></stop>
      <stop offset="1" style="stop-color:#434343"></stop>
    </linearGradient>
    <path d="M28.3 88.2c.2 6.9 6 12.5 12.9 12.5h14.6c5.5 0 9.9-4.5 9.9-9.9V58.1c0-5.5-4.5-9.9-9.9-9.9H40c-6.6 3.5-11.5 9.4-11.5 17.1z" style="opacity:0.6;clip-path:url(#piam_svg__SVGID_2_);fill:url(#piam_svg__SVGID_6_)"></path>
    <linearGradient id="piam_svg__SVGID_7_" x1="21.404" x2="42.005" y1="92.201" y2="69.862" gradientUnits="userSpaceOnUse">
      <stop offset="0" style="stop-color:#d4d4d4"></stop>
      <stop offset="0.53" style="stop-color:#5e5e5e"></stop>
      <stop offset="1" style="stop-color:#dedede"></stop>
    </linearGradient>
    <path d="M60.6 76.4c0-12.6-10.3-22.8-24-22.8-9.6 0-18.2 5-22.6 12.3V87c2.4 4.2 6.2 7.6 10.8 9.7 1.9-2.4 3-5.3 3.4-8.6.2 4.7 2.9 8.8 6.8 10.9h.8c13.7.1 24.8-10.1 24.8-22.6" style="opacity:0.3;clip-path:url(#piam_svg__SVGID_2_);fill:url(#piam_svg__SVGID_7_)"></path>
    <g style="opacity:0.4;clip-path:url(#piam_svg__SVGID_2_)">
      <path d="M28.5 65.1v-.2c.1-3.8 1.3-7.2 3.4-10.1-9.2 2.8-16.2 11.4-16.2 21.6 0 7.9 4 14.9 10.1 18.9 2.2-3.5 2.4-7.1 2.4-7.1s.2-2.2.2-2.8V65.1z" style="fill:#a6a6a6"></path>
    </g>
  </g>
</svg>
