<svg xmlns="http://www.w3.org/2000/svg" width="60" height="60" viewBox="0 0 150 150">
  <style>.sac_svg__sac{fill:#616262}</style>
  <path d="M78.7 56.7h-9.1L55.5 93h10.1l2.3-6.5h13.2l2.3 6.5h10.1L79.7 56.7zm-8.3 23 4.2-11.6 4.1 11.6zM115.8 64.9c3.3 0 6.2 1.6 8 4V58c-2.6-1.3-5.5-2-8.6-2-10.5 0-19.1 8.5-19.1 19.1s8.5 19.1 19.1 19.1c3.1 0 6-.7 8.6-2v-11c-1.9 2.4-4.8 4-8 4-5.6 0-10.2-4.5-10.2-10.2 0-5.6 4.6-10.1 10.2-10.1M44.3 71.3l-2.6-.8c-2.1-.6-4.9-2-4.7-3.9s1.8-3.1 3.9-3.1c0 0 3.5 0 6.5 2.3l3.8-6.9c-4.9-2.6-8.6-3.1-13-2.7-6.1.4-10.7 5.8-10.7 11.9 0 6 3 8.5 10.6 10.3 3.7 1.1 5.2 2.3 5.2 4.4s-2.2 3.8-4.8 3.8c0 0-5-.1-8.4-3.9l-3.8 7.2s5.6 5 15.6 3.9c7.3-.8 10.9-6.2 10.9-11.7s-2.4-9.1-8.5-10.8" class="sac_svg__sac"></path>
</svg>
